<?xml version="1.0" encoding="UTF-8" standalone="no"?>
<!-- Created with Inkscape (http://www.inkscape.org/) -->

<svg
   xmlns:dc="http://purl.org/dc/elements/1.1/"
   xmlns:cc="http://creativecommons.org/ns#"
   xmlns:rdf="http://www.w3.org/1999/02/22-rdf-syntax-ns#"
   xmlns:svg="http://www.w3.org/2000/svg"
   xmlns="http://www.w3.org/2000/svg"
   xmlns:sodipodi="http://sodipodi.sourceforge.net/DTD/sodipodi-0.dtd"
   xmlns:inkscape="http://www.inkscape.org/namespaces/inkscape"
   version="1.1"
   id="svg2"
   xml:space="preserve"
   width="2393.3333"
   height="742.66669"
   viewBox="0 0 2393.3333 742.66669"
   sodipodi:docname="surrey.svg"
   inkscape:version="0.92.2 (5c3e80d, 2017-08-06)"><metadata
     id="metadata8"><rdf:RDF><cc:Work
         rdf:about=""><dc:format>image/svg+xml</dc:format><dc:type
           rdf:resource="http://purl.org/dc/dcmitype/StillImage" /><dc:title></dc:title></cc:Work></rdf:RDF></metadata><defs
     id="defs6" /><sodipodi:namedview
     pagecolor="#ffffff"
     bordercolor="#666666"
     borderopacity="1"
     objecttolerance="10"
     gridtolerance="10"
     guidetolerance="10"
     inkscape:pageopacity="0"
     inkscape:pageshadow="2"
     inkscape:window-width="640"
     inkscape:window-height="480"
     id="namedview4"
     showgrid="false"
     inkscape:zoom="0.1483287"
     inkscape:cx="1196.6666"
     inkscape:cy="371.33334"
     inkscape:window-x="0"
     inkscape:window-y="27"
     inkscape:window-maximized="0"
     inkscape:current-layer="g10" /><g
     id="g10"
     inkscape:groupmode="layer"
     inkscape:label="ink_ext_XXXXXX"
     transform="matrix(1.3333333,0,0,-1.3333333,0,742.66667)"><g
       id="g12"
       transform="scale(0.1)"><g
         id="g14"
         transform="scale(1.10123)"><path
           d="M 0,5057.99 H 16300 V 0 H 0 v 5057.99"
           style="fill:#fdfdfd;fill-opacity:1;fill-rule:nonzero;stroke:none"
           id="path16"
           inkscape:connector-curvature="0" /></g><path
         d="m 1912.6,5309.3 c 3.5,25.7 24.8,41.2 50.6,36.4 9.2,-48.2 5.6,-97.8 -4.6,-145.6 -15.9,-75.4 -36.9,-152.6 -84.8,-214.6 -62.8,-82.9 -142.3,-150.9 -212.1,-227.7 -48.7,-54.6 -103.3,-105.2 -141.1,-168.6 -49.4,-82.3 -75.5,-176.8 -86.4,-271.7 26,11.7 52.1,25.3 68.5,49.6 79.1,100.6 186.2,175 299.3,232.8 -16.5,32.3 -44.3,78.7 -3.1,104.9 41.4,2.6 46.9,-51.6 65.7,-79.1 130.8,38.6 267.4,52 398.9,87.6 -1.7,36.6 -6.1,72.9 -11.2,109.1 11.5,11.7 23.2,23.1 35.4,34.1 6.7,-3.5 20,-10.5 26.6,-14 6.8,-37.7 10.9,-75.8 13,-114 30.3,8.4 60.1,18.3 89.6,29.2 -16.8,76.4 -16.2,158.2 14.7,231.2 40.4,98.4 123.3,174.3 216.7,222.1 14.1,8.8 40.7,10.9 40.5,-12 2.6,-37.6 -34.5,-58.5 -61.1,-77.2 -100.5,-67.9 -148.2,-196.2 -131.5,-314.5 61.7,50.2 115.9,109.3 161.4,174.6 26.3,34.4 61.2,78.7 110.5,63.7 -6.4,-54.8 -40.6,-99.7 -69.8,-144.5 -45.9,-65.9 -95.9,-129.8 -155.8,-183.4 -60.4,-54.6 -139.5,-81.1 -217.4,-99.3 -14.2,-91.5 -49.9,-193.8 -140.7,-234.9 -87.8,-45.6 -194.9,-20.8 -269,39.7 5.6,-101.5 -41.3,-206.1 -130.8,-258.1 -84.1,-54.4 -192,-40.2 -278.9,-0.4 -2.9,-5.6 -8.5,-16.8 -11.3,-22.4 23.7,-13.7 46.6,-28.8 68.9,-44.8 75.1,8.1 155.3,13 226.3,-17.5 27.6,-10.6 37,-46.5 19.7,-70 -31.7,-47.8 -91.1,-62.2 -140,-85.5 49.3,-99.1 104.8,-195.6 171.8,-284 53.7,-69.6 110.4,-136.9 160.5,-209.4 52.8,-73.3 95.4,-155 161.3,-218.1 69.8,-70.5 162.5,-113.7 257.9,-137.2 136.7,-33.8 278.8,-34.6 418.7,-28.4 175.4,-3.2 351.6,-11.2 526.2,10.9 71,9.7 143.7,15.9 214.8,3.1 155,-31 295.5,-134 364.8,-277.1 65.8,-130.3 71.5,-281.2 53.4,-423.5 -13,-95.7 -33.3,-193 -81.3,-277.9 -14.6,133.2 -21.6,267 -35.8,400.2 -9.9,-124.3 -18.6,-248.6 -24.1,-373.2 -1.7,-46.4 -0.8,-94 16.2,-138 53.5,-149.3 123.1,-292.3 180.7,-440 4.6,-16.5 14.7,-34.8 6.4,-51.8 -18,-43.2 -46.2,-81.1 -71.7,-120.1 -113.5,-165.2 -235.4,-324.4 -354.7,-485.301 -49.6,-67.597 -101.1,-134 -143.9,-206.301 -20.2,-33 -61.4,-38.5 -95.3,-48.898 102.2,-23.102 203.2,-50.898 304.2,-78.5 114.9,-30.801 232.3,-50.5 347.3,-80.699 -136.4,-10.903 -272.3,11 -406.9,30.301 -479.6,65.699 -965.3,105 -1449.3,73.296 C 1926.7,545.801 1662.9,504.5 1411.8,419.801 1233,358.199 1056.8,277.898 911.898,154.301 927,291.699 991,423.699 1095,515.602 1154.5,571.5 1226.3,611.5 1298.6,648.199 1176,692.102 1054,737.602 931.898,782.602 981.5,945.699 1032.6,1108.4 1083.7,1271.1 966.699,1551.4 848.301,1831.2 731,2111.4 620.5,2059.9 512,2004.2 401.301,1952.9 c -36.801,78 -78.801,153.4 -113.699,232.3 38,17.6 76.199,34.8 114,52.7 0.199,-31.8 -0.204,-67.4 23.398,-92.2 38.898,-50 126.102,-44.1 157.301,11.2 29.097,43 14.801,101.8 -22.903,134.7 41.204,4.9 83.403,27.1 95.704,69.4 27,64.8 -35.204,143.3 -104.403,132.1 -33.301,-2.7 -58.898,-26.1 -75.398,-53.5 -6.102,42.5 -29.699,86.9 -74.301,98.2 -61.102,21.4 -129.602,-34.2 -125.602,-97.9 -1.898,-44.3 33.801,-74.5 66.403,-98 -36.403,-20.3 -72.403,-41.2 -109.403,-60.4 -33.597,76.5 -68.699,152.4 -103.699,228.3 -38.699,69.3 4.5,155.2 62.199,199.5 114.301,84 239.5,152.8 369.403,209.7 86.699,36.9 176.398,69.3 270.097,82.7 52.403,6 111.301,8.4 156,-24.4 86.402,-60.2 173.002,-120 259.302,-180.3 -53.1,124.6 -43.2,266 -4.3,393.1 31.6,120 65.4,244.1 52.2,369.2 1.8,18.8 -19.1,21.6 -32.5,25.8 -147.6,37.2 -294.998,75.5 -442.202,114.3 -41.5,8.7 -71.597,40.9 -97.699,72.1 -21.801,24.3 -16.5,59.9 -13,89.6 2.801,19.4 24.199,23.6 39,30.6 113.602,41.8 226.699,85.2 341.701,123.1 88,29.2 169.5,74 254.2,111.2 -3.4,21.1 -6.6,42.2 -9.6,63.4 -41.3,-22.1 -85.1,-43.6 -133,-43.7 -99.5,-3.6 -191,72.8 -213.5,168.3 -23.699,101.5 -8.301,209.9 30.4,305.7 25.3,-1.2 54.4,-20.9 44.2,-49.7 -27.4,-94.4 -31.4,-206.4 30,-288.9 29.5,-41.2 83.6,-49.4 130.6,-41.6 -34.5,37 -70.6,77.5 -77,129.9 -17,120.9 35.1,238.1 96.3,339.1 7.7,20.5 40.4,22.4 47.9,0.9 15.3,-22.1 -3.2,-45.8 -13.4,-65.4 -45.3,-80 -71.2,-179.1 -42.4,-269 13.3,-43.7 55,-68.8 98.4,-73.9 7.8,101.9 40.2,200.2 87,290.6 -18.1,40.9 -35.1,83.6 -35.2,129 -1.4,70.3 29.4,138.4 76.3,189.6 14,14 28.5,35 51.3,26 17.8,-15 23,-46.1 3.4,-61.8 -53.6,-52.9 -68.1,-134.2 -50.5,-205.7 61.7,88.9 147.5,156.1 224.5,230.8 -31.6,48.4 -62,100.9 -65.3,159.9 -8.9,90.5 36.7,180.7 106.7,236.4 24.9,2.4 38.1,-24.6 36.1,-46.2 -19.1,-30.2 -47.9,-54.8 -58.1,-90.2 -26.1,-69.5 -11.2,-148.8 30.7,-208.8 42.4,48.6 87.2,96.9 115.9,155.4 32.7,63.4 44,134.1 57.8,203.2"
         style="fill:#c5a60e;fill-opacity:1;fill-rule:nonzero;stroke:none"
         id="path18"
         inkscape:connector-curvature="0" /><g
         id="g20"
         transform="scale(1.03121)"><path
           d="m 15609.3,4469.1 c 182.2,10.67 382,-21.72 520.6,-150.02 131.4,-122.67 170.1,-317.68 138.5,-489.52 -26.1,-150.5 -120,-287.81 -252.6,-364.23 -170.3,-99.2 -378.9,-111.33 -569.2,-76.02 -155.7,28.99 -306.1,122.18 -373.2,269.87 -84.8,187.84 -64.2,424.45 63.7,588.34 111,144.1 294.6,213.43 472.2,221.58"
           style="fill:#0d4684;fill-opacity:1;fill-rule:nonzero;stroke:none"
           id="path22"
           inkscape:connector-curvature="0" /></g><path
         d="m 11513.7,4485.6 c 65.5,71.3 162,104.5 255.6,118 93,15.2 186.9,3.3 280.3,0.9 47.5,-2.2 95.1,-1.9 142.6,-5.4 -0.3,-52.1 -0.2,-104.2 -0.3,-156.2 -47.9,37.8 -99,75.5 -160,87.9 -86.9,16.4 -179.1,19.2 -263.7,-9.5 -54.7,-18.8 -104.4,-62.4 -116.4,-120.7 -15.2,-55 1.5,-116.6 42.6,-156.1 63.6,-63.6 150.3,-95 230.8,-131.1 92.6,-41.3 191.8,-80.1 261.2,-157.3 50.7,-54.2 68.4,-134.2 51.3,-205.7 -17.6,-81.7 -79.9,-145.9 -149.4,-188.1 -110,-65 -240.7,-90.2 -367.4,-84.7 -109.5,7.5 -218.7,25.3 -323.4,58.4 0.2,59.6 0,119.1 0.2,178.6 60.4,-69.5 136,-129.8 227.2,-151.8 102.1,-24.8 215.8,-28.8 312.2,18.8 63.7,30.8 110,96.9 109.5,168.7 3.8,64.7 -33.5,124.6 -84,162.2 -89.6,68.1 -198.5,102 -298.2,151.5 -68.5,33.7 -138.8,73.6 -181.8,138.8 -56.3,86.6 -38.6,208.9 31.1,282.8"
         style="fill:#0d4684;fill-opacity:1;fill-rule:nonzero;stroke:none"
         id="path24"
         inkscape:connector-curvature="0" /><path
         d="m 1945.9,4530.6 c 98,26.5 197.1,49.4 296.9,67.8 -22.4,-58.3 -57.4,-123 -123.2,-138.7 -66,-12.7 -127.8,27.5 -173.7,70.9"
         style="fill:#fdfdfd;fill-opacity:1;fill-rule:nonzero;stroke:none"
         id="path26"
         inkscape:connector-curvature="0" /><path
         d="m 10334.7,4583.6 c 174.8,-0.3 349.1,17.5 523.9,16.2 91.8,-2.7 192.5,-23.5 256.4,-94.9 63.3,-70.8 60.9,-183.1 7.9,-259 -62.4,-91 -165.4,-143.5 -267.2,-178.5 75.1,-88.6 154.6,-173.4 231.2,-260.6 96.2,-105.4 185.8,-219.3 304.1,-301.5 -65.8,-0.9 -131.6,-2 -197.3,-0.1 -53.5,2.9 -100.1,34.3 -133.7,74.2 -96.1,110.8 -192,221.8 -288,332.7 -30.8,35.4 -60,75.2 -103.2,96.1 -31.5,15.7 -67.1,18.2 -101.4,21.2 -0.4,-109.6 -0.1,-219.3 -0.3,-329 0.5,-67.2 6,-138.2 44.2,-195.9 -95.7,-0.2 -191.4,0 -287.1,-0.1 55.8,73 57,167.7 54.3,255.4 -0.3,213.6 0.4,427.3 -0.3,641 0.6,63.3 -8,128.8 -43.5,182.8"
         style="fill:#0d4684;fill-opacity:1;fill-rule:nonzero;stroke:none"
         id="path28"
         inkscape:connector-curvature="0" /><path
         d="m 14078.3,4583.3 c 40.8,1.5 78.3,-20.6 100.8,-54.2 102.8,-137.1 177.9,-293.6 234.6,-454.8 3,-15.5 24.4,-34.3 35.3,-14.4 45.2,61.7 86.6,126.2 131.1,188.4 51.3,76 111.8,149.6 136.1,239.7 9.1,34.4 -1.9,69.4 -24.5,95.9 86.8,-0.7 173.8,0.3 260.7,-0.6 -107.5,-136.9 -216.3,-272.9 -325.3,-408.6 -60.7,-76.1 -113.3,-162.3 -128.8,-259.9 -13.8,-94.3 -13.3,-190.4 -5.8,-285.2 2.3,-44.5 17.2,-87.2 40.2,-125.2 -91.9,0 -183.8,0.1 -275.7,0 62.1,100.6 39.5,224 44.5,336.1 6.4,111 -36.1,216.7 -90.2,311.3 -86.3,152.3 -181.9,304.5 -316.9,418.5 -54.7,-59.1 -139.4,-68.2 -215.1,-72.2 -85.9,-0.7 -171.8,0.1 -257.6,-0.2 0,-276 -0.1,-552 0.1,-828 -0.6,-57.8 10.6,-116.8 42.7,-165.7 -92.1,0.5 -184.2,0 -276.2,0.3 45,70.1 44.6,155.9 44.2,236.2 0,252.3 0,504.7 0,757.1 -100.8,-0.2 -201.6,1.1 -302.3,-0.6 -43.9,-0.2 -85.9,-14.9 -124.3,-35.1 14.3,40.4 27.7,81 41.8,121.5 410.2,-0.1 820.4,0.5 1230.6,-0.3"
         style="fill:#0d4684;fill-opacity:1;fill-rule:nonzero;stroke:none"
         id="path30"
         inkscape:connector-curvature="0" /><path
         d="m 5057.5,4583.8 c 92.3,-0.2 184.7,-0.2 277,0 -31.1,-48.8 -43.3,-106.6 -42.9,-163.9 -1.1,-163.3 -0.1,-326.5 -0.5,-489.8 -2.8,-86.2 0.9,-180.5 56.8,-251.2 61.1,-79.5 167.6,-102 262.7,-103.2 94,-2 200.3,14.2 265.1,89.3 61.9,72.9 70.5,173.4 72.3,265 11.8,149.7 6,299.8 7.4,449.7 0.7,70 -5.7,143.2 -44,204 92.2,0 184.3,-0.1 276.5,0 -37,-57.4 -44.1,-126.8 -44,-193.5 -0.5,-230.3 -0.3,-460.6 -0.1,-690.9 -0.1,-67 5,-137.9 44.3,-194.8 -82.2,-4.7 -164.3,-8.5 -246.6,-10.1 2.4,40.6 5.9,81.2 5.4,121.9 -156.5,-121.9 -364.8,-159.1 -558.2,-131.4 -92.4,12.6 -191.7,47.6 -244.5,129.5 -40.3,60 -44.8,134.8 -42.9,205 0.2,190.4 -0.1,380.8 0.1,571.3 -0.2,66.5 -6.9,135.8 -43.9,193.1"
         style="fill:#0d4684;fill-opacity:1;fill-rule:nonzero;stroke:none"
         id="path32"
         inkscape:connector-curvature="0" /><path
         d="m 6391.4,4583.6 c 79.8,-0.7 159.7,1.6 239.5,-0.8 32.3,0.3 54,-25.9 72.9,-48.4 72,-88.7 139.5,-181 212.6,-268.8 136.3,-156.8 273.7,-312.7 410.1,-469.5 20.7,-22.2 37.4,-53.2 70.2,-58.6 4.8,214.1 0.8,428.4 2.1,642.6 1.6,70.6 -11.6,142.1 -47.7,203.5 71.9,0.1 143.8,0.2 215.7,-0.1 -48.1,-78.8 -64.5,-172.2 -62,-263.4 2.2,-274.5 -4.1,-549.2 3.8,-823.6 -49.3,-0.3 -98.6,-0.3 -147.9,0.1 -236.4,271.8 -472,544.3 -708.3,816.2 -27,31.1 -52.1,64.6 -85.3,89.6 -6.9,-40.4 -4.8,-81.5 -4.8,-122.2 0.2,-146.9 -0.2,-293.8 -0.1,-440.6 0.2,-113.9 10.5,-231 60.3,-335 -79.5,-0.3 -159,-0.3 -238.5,-0.1 50.8,104.3 64.2,221.4 69.9,335.7 4.7,176.8 1.4,353.6 2.3,530.3 0.4,75 -7.3,158.3 -64.8,213.1"
         style="fill:#0d4684;fill-opacity:1;fill-rule:nonzero;stroke:none"
         id="path34"
         inkscape:connector-curvature="0" /><path
         d="m 7751.2,4583.7 c 92.2,0 184.3,-0.1 276.5,0 -35.4,-54.2 -44.3,-119.9 -43.8,-183.4 -0.2,-236.7 -0.1,-473.4 0,-710.1 -0.6,-64.2 7.7,-130.8 43.3,-185.8 -92,0.1 -184,0 -275.9,0 33.6,52.2 43.4,115 43.5,176.1 0.2,239.9 0,479.8 0.1,719.7 0.1,63.5 -8.8,129 -43.7,183.5"
         style="fill:#0d4684;fill-opacity:1;fill-rule:nonzero;stroke:none"
         id="path36"
         inkscape:connector-curvature="0" /><path
         d="m 8088,4583.2 c 64.1,0 128.2,1.9 192.3,-0.3 27.6,-0.4 42.2,-27.4 51.3,-49.8 108,-264 230.1,-522.7 319.4,-794.1 7.2,-22.2 18.2,-42.9 29.8,-63.2 33,18.4 40.2,58.1 55.8,89.5 87.8,195.3 187.1,385.9 260.3,587.5 25.3,73.6 54.1,152.6 32.1,230.9 86.2,-0.2 172.4,0.4 258.6,-0.4 -240.6,-335.4 -410.3,-713.7 -581.9,-1087.1 -53.3,0.2 -106.7,0.2 -160,0 -137.4,368.1 -256.8,747 -457.7,1087"
         style="fill:#0d4684;fill-opacity:1;fill-rule:nonzero;stroke:none"
         id="path38"
         inkscape:connector-curvature="0" /><path
         d="m 9368.9,4583.6 c 242.3,0.1 484.5,0.1 726.8,0 2.5,-43.2 6.2,-86.4 8.6,-129.7 -80.7,48.2 -176.3,58.6 -268.4,60.7 -77.9,1.3 -155.8,0.2 -233.7,0.5 -0.1,-134.2 -0.1,-268.5 0,-402.7 163.9,-0.4 327.9,-0.6 491.6,10.7 -34.9,-38.6 -83.5,-60.3 -133.3,-71.9 -117.2,-27.9 -238.7,-24.5 -358.3,-25.2 -0.1,-151 -0.1,-302 0,-453.1 148.7,4.7 300.8,-15 446.3,24.9 54.8,14.2 106.1,39.3 153.6,69.8 -12.2,-51.4 -24.6,-102.8 -37.2,-154.1 -107.8,-12.1 -216.5,-8.7 -324.8,-9.1 -159.2,0 -318.4,0 -477.6,0 46.4,69.2 50.1,155 50.9,235.6 0.1,196.7 -0.1,393.5 0,590.2 -1,85.7 3.8,178.1 -44.5,253.4"
         style="fill:#0d4684;fill-opacity:1;fill-rule:nonzero;stroke:none"
         id="path40"
         inkscape:connector-curvature="0" /><path
         d="m 12414.2,4583.8 c 92.2,-0.3 184.5,0 276.8,-0.2 -48.9,-75.3 -43.6,-168 -43,-253.8 0,-193.4 0.1,-386.9 0,-580.3 -0.8,-83 -4.8,-172.6 42.9,-245 -92,-0.3 -184,0.1 -275.9,-0.2 42.2,63.5 44.1,142.2 42.8,215.8 -0.4,233.3 0.3,466.6 -0.3,699.9 0.1,57.3 -11.8,115.3 -43.3,163.8"
         style="fill:#0d4684;fill-opacity:1;fill-rule:nonzero;stroke:none"
         id="path42"
         inkscape:connector-curvature="0" /><g
         id="g44"
         transform="scale(1.08628)"><path
           d="m 15615.6,4219.74 c 161.8,-0.28 323.4,0 485.2,-0.1 66,-2.3 132.9,6.17 198.2,-7.45 0.5,-44.74 1,-89.57 -1,-134.31 -41.4,45.01 -99.8,68.86 -159.9,73.74 -103.4,9.48 -207.4,3.03 -311.1,4.88 -0.1,-132.94 0,-265.87 0,-398.8 150.7,-0.18 301.6,-0.65 452.1,10.04 -42.4,-48.71 -107.9,-65.55 -168.9,-75.95 -93.6,-15.01 -188.7,-12.8 -283.2,-13.53 0.1,-99.98 -0.4,-199.96 0.2,-299.93 0,-53.03 9.9,-107.16 39.1,-152.35 -84.7,0.27 -169.3,-0.1 -253.9,0.18 46,69.5 38.7,155.58 40.9,234.84 0.1,193.59 0.2,387.1 0,580.61 -0.4,61.03 -2.9,125.56 -37.7,178.13"
           style="fill:#0d4684;fill-opacity:1;fill-rule:nonzero;stroke:none"
           id="path46"
           inkscape:connector-curvature="0" /></g><path
         d="m 10572.7,4532.9 c 82.1,0.3 164.7,-0.1 246.1,-12.4 55.8,-9.5 117,-35.5 139.1,-92 38.2,-98 11.2,-227.7 -81.8,-285.4 -91.5,-57.9 -204.9,-54.9 -308.8,-47 2.6,145.6 -6.2,291.6 5.4,436.8"
         style="fill:#fdfdfd;fill-opacity:1;fill-rule:nonzero;stroke:none"
         id="path48"
         inkscape:connector-curvature="0" /><g
         id="g50"
         transform="scale(1.0169)"><path
           d="m 15794.3,4454.61 c 90.6,12.49 186.6,4.52 269.4,-36.68 75.6,-37.86 134.5,-104.34 170.3,-180.35 51.7,-109.55 66,-233.85 55.8,-353.72 -10.5,-103.85 -49.6,-208.18 -125.3,-282.13 -69,-68.84 -166.3,-103.75 -262.6,-107.78 -90.2,-5.41 -184.5,11.4 -260.4,62.54 -140.2,94.7 -192.1,274.56 -191.6,436.22 -3.4,114.57 24.7,233.85 97.1,324.72 59.8,76.8 151.6,124.49 247.3,137.18"
           style="fill:#fdfdfd;fill-opacity:1;fill-rule:nonzero;stroke:none"
           id="path52"
           inkscape:connector-curvature="0" /></g><path
         d="m 1558.6,4252.5 c 67.1,102.7 161.2,190.2 274.2,239.9 6.1,-79.5 -1.5,-173.2 -67.4,-227.8 -58.4,-47.5 -140.7,-34.7 -206.8,-12.1"
         style="fill:#fdfdfd;fill-opacity:1;fill-rule:nonzero;stroke:none"
         id="path54"
         inkscape:connector-curvature="0" /><path
         d="m 5386.3,3083.6 c 166.1,108.6 367.7,149.6 563.8,151.3 215.9,-0.1 430.9,-22.8 646.8,-23.2 0.4,-117.2 1,-234.4 -0.3,-351.6 -69.6,64.4 -142.4,128.1 -230,166.9 -89.5,41.1 -189.1,51.1 -286.5,54.5 -145.7,5.7 -302.3,-9.9 -423.4,-98.6 -166.1,-119.9 -196.6,-380.4 -74,-541.4 69.4,-92.2 168.1,-156.1 267.7,-211.5 187.5,-103 390.1,-179.3 566.5,-302.1 107.6,-75.1 205.1,-173.5 251.4,-298.7 63.7,-171.9 38.1,-372.5 -61.4,-525.8 C 6522,971.301 6391.6,874 6250.2,808.898 6064.6,723.801 5857.5,687.5 5653.8,699.199 c -218.1,16 -434.9,57.903 -641.7,129.5 -0.4,133.903 -0.9,267.801 0.3,401.701 88.2,-114.1 189.5,-223.1 320.4,-288.4 149,-77 321.5,-101.301 487.5,-90.102 147.4,10.5 299.7,66.602 394.6,184.502 91.9,113.5 114.6,273 77.1,411.9 -36.1,125.5 -133.8,221.1 -239.1,292.3 -180.8,121.4 -386.9,197.3 -573.5,308.5 -116.1,69.2 -229.2,154.1 -297.9,273.1 -75,128 -81.4,286.6 -44,427.7 36.3,137.9 130,256.6 248.8,333.7"
         style="fill:#0d4684;fill-opacity:1;fill-rule:nonzero;stroke:none"
         id="path56"
         inkscape:connector-curvature="0" /><path
         d="m 9477.2,3174.3 c 348.2,-1.8 694.9,40.2 1043.1,37.5 171.5,-5.3 355,-46 480.8,-170.6 111.8,-106.7 150.9,-271.7 127.4,-421.2 -20,-136.6 -96.4,-259.3 -194.9,-353.6 -118.3,-111.6 -263.4,-191.4 -415.2,-247.5 223.1,-283 449.9,-563.1 674.2,-845.1 61.9,-78.1 125.1,-155.4 194,-227.499 64.8,-67.301 136.9,-126.903 206.9,-188.699 -104.5,-0.903 -208.9,0.097 -313.3,-0.5 -69.7,-1.5 -142.1,5.796 -204.4,39.296 -68.6,35.602 -119.3,95.903 -165.5,156.204 -202.7,262.898 -406.4,525.098 -608.7,788.298 -38.1,47.9 -77.9,96.1 -128.5,131.2 -67,45.6 -149.7,56.1 -228.3,63.5 -0.1,-192 0,-384 0,-576 1.5,-143 -6.5,-287.5 21.6,-428.702 12.3,-61.597 35.5,-120.796 69.7,-173.597 -193.2,0 -386.4,-0.102 -579.6,0 80.3,117.597 112.2,261.399 111.1,402.299 -0.2,546.1 0.6,1092.2 -0.4,1638.3 -3.4,129.2 -16.6,265.9 -90,376.4"
         style="fill:#0d4684;fill-opacity:1;fill-rule:nonzero;stroke:none"
         id="path58"
         inkscape:connector-curvature="0" /><path
         d="m 11637.8,3174.2 c 284.7,-1.1 568.3,26.3 852.6,35.1 179.9,7.8 369.1,7.9 534.7,-72.6 107.6,-51.2 198.8,-141.7 239.5,-254.9 62,-168.5 27.3,-364.5 -78,-508.3 -123.5,-171.2 -313.2,-281.8 -507.8,-354.5 227.6,-289 459,-575 688.2,-862.7 61.5,-77.7 125.1,-153.9 194.2,-224.999 61.4,-61 127.7,-116.699 192.7,-173.699 -114.6,-0.704 -229.2,-0.102 -343.7,-0.403 -76.6,0.102 -155,18.903 -216.7,65.903 -73.2,53.796 -122.4,131.699 -178.5,201.598 -186,240.7 -372.4,481.1 -557.9,722.1 -49,61.6 -102.9,125.2 -178.4,154.1 -55.2,22.5 -115.1,28.8 -173.7,34.7 0,-251.9 -0.5,-503.8 0.2,-755.6 2.5,-144.1 9.3,-298.398 91.1,-422.801 -193.2,0.102 -386.4,-0.097 -579.6,0.199 58.1,86.801 93.8,187.602 104.6,291.502 11.2,103.5 5.3,207.8 6.8,311.7 0,456.7 0.1,913.5 0,1370.2 -0.9,150.9 -5.2,312.8 -90.3,443.4"
         style="fill:#0d4684;fill-opacity:1;fill-rule:nonzero;stroke:none"
         id="path60"
         inkscape:connector-curvature="0" /><path
         d="m 6935.9,3174.4 c 186.3,0.1 372.7,0.1 559.1,0 -90.1,-140.3 -90.5,-313.6 -91.4,-474.5 0.1,-309.9 0,-619.9 0.1,-929.9 1.2,-133.5 -7.9,-268.9 23.2,-400.1 26.4,-126.4 89,-249.1 193.5,-328.2 124.8,-95.098 286.4,-122.802 439.7,-124.501 138.6,-0.597 286,18.602 401.5,101.701 93.7,66.2 150.2,172.6 179.5,281.3 42.7,153 41.5,313 48.1,470.3 17.8,249.5 12.1,499.7 12.9,749.7 -1.1,100.7 3,201.5 -3.8,302 -3.2,121.5 -21.2,247.8 -88,352 186.2,0.4 372.4,0.3 558.6,0.1 -42.1,-66.2 -66.5,-141.9 -77.3,-219.2 -19.5,-140.7 -14,-283 -14.7,-424.6 0.1,-453.2 -0.3,-906.4 0.2,-1359.6 4.5,-141.1 9.8,-292.099 91.2,-413.4 -165.4,-6.898 -330.7,-16 -496.1,-22.102 3.1,87.5 15.7,174.5 14.2,262.102 -6.3,-0.602 -18.9,-1.602 -25.2,-2.199 C 8528.1,878.199 8369.9,787.5 8198.2,741 c -184.7,-49.801 -379.4,-53.699 -568.5,-30.602 -163.6,22.403 -332,78.204 -447.7,201.5 -110.2,116.302 -153.7,280.402 -155,437.302 0,456.9 0,913.8 0,1370.7 -0.9,154.5 -4.9,320.1 -91.1,454.5"
         style="fill:#0d4684;fill-opacity:1;fill-rule:nonzero;stroke:none"
         id="path62"
         inkscape:connector-curvature="0" /><path
         d="m 13805.2,3174.4 c 485.8,0 971.7,0.2 1457.5,-0.1 4.6,-97.2 11.7,-194.2 15.9,-291.4 -147.7,107 -336.1,130.6 -513.5,136.3 -163.9,7.3 -328,1.7 -492,3.5 -0.4,-301.7 -0.5,-603.3 0.1,-904.9 327.2,-1.4 654.9,0.6 981.4,26 -61,-88.1 -164.5,-132.5 -264.1,-160.9 -233.7,-62 -477.9,-54.8 -717.6,-55.7 -0.1,-338.6 0,-677.2 -0.1,-1015.899 142.8,-0.199 285.5,-2.602 428.2,-1.801 82.8,3.102 166,0 248.3,12 188.6,22.398 375.9,85 526.3,203.6 -25.3,-116 -50.7,-231.998 -74.9,-348.202 -117.2,-8.898 -234.5,-16.097 -351.8,-19.398 -418.7,-0.5 -837.3,-0.102 -1256,-0.199 107.2,166.097 103.7,372.499 103.3,562.699 0,463.3 -0.1,926.5 0,1389.7 -0.4,157.7 -1.7,327.9 -91,464.7"
         style="fill:#0d4684;fill-opacity:1;fill-rule:nonzero;stroke:none"
         id="path64"
         inkscape:connector-curvature="0" /><g
         id="g66"
         transform="scale(1.07377)"><path
           d="m 14300.7,2955.95 c 128.3,-0.1 256.8,2.23 385.2,-1.21 63.2,-0.65 126.8,-29.9 158.8,-86.33 85.2,-139.7 154.5,-288.43 223.5,-436.6 72.5,-158.51 140.7,-319.06 208.5,-479.71 15.6,-34.18 21.7,-74.88 48.6,-102.82 24.3,-13.59 39.3,15.46 51.1,31.85 90.6,153.39 186.5,303.42 279.6,455.22 81.9,131.23 166.3,265.14 204.1,416.85 18.8,71.15 2.7,150.13 -49.6,203.31 163.2,-0.56 326.3,0.37 489.5,-0.56 -122.7,-174.06 -246.5,-347.28 -369.5,-520.97 -100.3,-144.45 -209,-283.12 -303.6,-431.38 -76.8,-119.76 -137.1,-251.45 -164,-391.7 -23,-113.53 -27.7,-229.85 -26.4,-345.43 0.9,-127.67 -5.1,-256.57 17,-382.946 10.8,-63.143 33,-124.328 68,-178.249 -173.1,0 -346.3,-0.186 -519.4,0.091 63.8,100.209 79.6,221.464 82.5,337.874 1.6,111.57 0.3,223.14 0.7,334.8 -1.1,80.66 4.7,162.15 -10,242.05 -31.6,193.15 -120.2,370.29 -209.1,542.58 -86.5,166.61 -180.9,329.59 -290.9,481.94 -81.2,112.23 -169,221 -274.6,311.34"
           style="fill:#0d4684;fill-opacity:1;fill-rule:nonzero;stroke:none"
           id="path68"
           inkscape:connector-curvature="0" /></g><path
         d="m 9953.6,3058.1 c 180.7,-2 365.2,11.1 541.8,-35.8 88.8,-23.2 174.1,-76.4 216.1,-160.5 54.2,-108.4 52.7,-235.1 38,-352.6 -20.2,-144.8 -104.4,-281.9 -234.7,-352 -172.9,-95.2 -379.1,-94.8 -570,-73.3 0,202.2 0,404.3 0,606.5 0.5,122.6 -3.2,245.5 8.8,367.7"
         style="fill:#fdfdfd;fill-opacity:1;fill-rule:nonzero;stroke:none"
         id="path70"
         inkscape:connector-curvature="0" /><path
         d="m 12081.2,3058.1 c 152.6,-1 306.2,6.5 457.5,-17.4 90.6,-14.9 185.2,-42.9 251.2,-110.4 64.9,-66 88.7,-160.7 94.5,-250.6 10.5,-155.5 -23,-324.7 -134.6,-440.1 -113.1,-117.5 -281.5,-160.3 -439.7,-166.2 -79.3,-2.7 -158.9,0.3 -237.6,10.4 0.1,262.2 0.1,524.4 0.1,786.6 0.3,62.6 2.4,125.3 8.6,187.7"
         style="fill:#fdfdfd;fill-opacity:1;fill-rule:nonzero;stroke:none"
         id="path72"
         inkscape:connector-curvature="0" /><path
         d="m 1409.1,2439.5 c -82.5,159.7 -89,350.2 -49.1,522.9 10,-244 89.1,-484 226.9,-685.6 36.3,-56.8 89.9,-106.6 101.1,-176.1 20.7,-115.8 14.3,-234.1 14.6,-351.2 -9.8,-335.4 -40.6,-669.7 -71.4,-1003.699 -52.1,-11.102 -104.2,-22.403 -155.9,-35.5 46.5,129.398 95,258 140.2,387.799 -114.1,64.6 -226.9,131.5 -341.1,196 -16.1,9.7 -34.9,19.1 -41.2,38.2 -203,479.5 -406.2,959 -608.802,1438.6 62.403,23.5 125.204,46.9 189.801,63.9 28.199,8.2 55.403,-7 78.301,-21.9 39.398,-26.5 73.898,-59.4 107,-93.3 114.8,-119.6 212.8,-253.6 320.4,-379.5 63.1,-74.2 165.5,-95 258.6,-92.2 -67.6,52.7 -130.4,114.2 -169.4,191.6"
         style="fill:#fdfdfd;fill-opacity:1;fill-rule:nonzero;stroke:none"
         id="path74"
         inkscape:connector-curvature="0" /><path
         d="m 2994,2665 c 65.5,-279.7 213.4,-541 426.3,-734.8 111.9,-120.4 212.7,-252 298,-392.6 30.2,-56 73.4,-121.6 41.1,-186.2 -59.4,-138.9 -152.3,-259.9 -240.2,-381.599 -80.7,-109 -165.9,-214.403 -251.3,-319.699 -80.3,11.699 -159.3,30.699 -239.5,43.597 -151.5,26.699 -304.1,46.903 -456.9,64.102 l -6.1,-12.403 c -0.4,5.5 -0.6,10.801 -0.3,16 52.8,4.301 102.2,27.204 143.2,60.204 139.7,108.898 269.4,230.098 396.4,353.498 114,114.7 232.5,226.7 329.1,357 -58.7,74.2 -101.9,160.4 -134.3,248.9 -7.8,64.1 17.1,128.6 45.2,185.4 -129,58.8 -221.2,176.5 -272.3,306.1 -49.4,124.6 -77.2,258.5 -78.4,392.5"
         style="fill:#fdfdfd;fill-opacity:1;fill-rule:nonzero;stroke:none"
         id="path76"
         inkscape:connector-curvature="0" /><path
         d="m 2440.6,2012.4 c 106.2,12.9 212.6,40.5 320.3,28.7 85.6,-8.3 161.8,-60.5 209.9,-130.4 82.4,-116.8 124,-256.1 162.4,-392.2 15.3,-45.2 -16.6,-86 -40.1,-121.5 C 3012,1286 2912.9,1189.8 2815.2,1093.7 2700,980.898 2579.9,873.102 2458.1,767.398 c -231.1,17.602 -464,22.403 -694.7,-3.5 64.2,328.902 129.3,657.602 202.9,984.502 21.3,89.2 39.2,179.7 71.8,265.7 132.9,-23.8 269.1,-21.1 402.5,-1.7"
         style="fill:#fdfdfd;fill-opacity:1;fill-rule:nonzero;stroke:none"
         id="path78"
         inkscape:connector-curvature="0" /><path
         d="m 1223.4,1095.2 c 81.3,35.3 179,-38.5 175.8,-124.802 5.5,-61.898 -38.3,-122.796 -97.9,-138.796 -63,-20 -134.2,21.398 -155.8,82.199 -28.7,68.301 7.3,156.499 77.9,181.399"
         style="fill:#fdfdfd;fill-opacity:1;fill-rule:nonzero;stroke:none"
         id="path80"
         inkscape:connector-curvature="0" /></g></g></svg>