<svg xmlns="http://www.w3.org/2000/svg" viewBox="0 0 2057.223 403.586"><defs><style>.a{fill:#ff3232;}.b{fill:none;stroke:#ff3232;stroke-miterlimit:10;stroke-width:10px;}</style></defs><title>logo</title><path class="a" d="M198.127,202.882h-.017v0Z"/><path class="a" d="M199.436,203.023l-.474-.052C199.1,202.985,199.261,203,199.436,203.023Z"/><path class="a" d="M198.127,202.882h-.017v0Z"/><path class="a" d="M199.436,203.023l-.474-.052C199.1,202.985,199.261,203,199.436,203.023Z"/><path class="a" d="M243.528,194.793c-.037-1.01-.209-2.861-2.178-3.409-33.326-9.257-43.51-10.936-53.507-19.771,1.056-5.412,3.518-10.342,5.512-15.409a7.908,7.908,0,0,0-.9-8.2c-.826,3.587-8.491,14.436-10.275,17.317-.838,1.352-1.513,1.027-2.437.141l-7.188-6.695c-1.053-.932-.972-1.687-.092-2.611,3.757-3.937,5.714-10.25,6.7-14l4.35-17.607c.545-2,.218-3.243-1.811-4.316l-7.125,19.917c-1.357,4.313-6.769,10.944-6.769,10.944-1.122,1.4-1.753,1.151-3.01.049l-8.218-8.2a6.824,6.824,0,0,1-2.144-5.211L155.2,88.84c.055-2.726-.863-4.319-3.563-5.3l-1.98,19.791c-.092.886-.069,2.072-.85,2.5-.984.542-1.865-.686-2.608-1.317l-4.657-4.281c-.9-.893-1.55-.678-2.342.134a1.288,1.288,0,0,0-.04,2.089l3.068,3.389c4.241,4.178,6.708,7.639,6.734,14.477.006,1.489-.229,3.483-.958,3.854s-2.083-.778-2.984-1.429l-12.44-9.2c-1.17-.9-2.235-.89-3.113-.029-.993.967.835,2.534.835,2.534l16.023,15.24c1.165,1.11,2.106,2.186,1.785,3.908-.511,7.719,4.284,14.772,7.639,18.477,0,0,18.488,19.237,26.953,27.926,0,0-11.55,29.039-19.593,41.449-10.9,16.819-45.6,33.338-45.6,33.338l62.242,43.657c13.194,0,24.623-18.064,27.983-30.337a47.847,47.847,0,0,0,2.319-13.739c.539-15.386-3.128-30.325-4.9-45.467q17.919-1.485,35.834-2.967S243.646,198.041,243.528,194.793Zm-45.418,8.089v0l.017,0Z"/><path class="b" d="M166.974,8.094,16.548,94.943A23.094,23.094,0,0,0,5,114.944v173.7a23.1,23.1,0,0,0,11.548,20l150.426,86.848a23.1,23.1,0,0,0,23.1,0L340.5,308.643a23.1,23.1,0,0,0,11.548-20v-173.7a23.094,23.094,0,0,0-11.548-20L190.07,8.094A23.1,23.1,0,0,0,166.974,8.094Z"/><path class="a" d="M579.27,283.312V208.038H490.864v75.274H476.325V120.334h14.539V195.14H579.27V120.334h14.305V283.312Z"/><path class="a" d="M615.1,283.312,662,120.334h34l46.666,162.978h-14.3l-13.132-45.024H642.532l-12.9,45.024ZM672.549,133l-26.5,92.392h65.66L685.211,133Z"/><path class="a" d="M861.262,280.732q-24.154,4.924-41.271,4.925t-27.554-3.635a44.054,44.054,0,0,1-17-10.2A45.094,45.094,0,0,1,765.118,254.7q-7.037-19.226-7.035-52.293,0-52.994,16.884-70.116,13.833-14.3,42.21-14.3,19.461,0,44.085,4.924l-.7,12.663q-24.391-4.452-39.162-4.455t-22.863,3.165A35.926,35.926,0,0,0,785.4,142.73q-5.045,5.276-7.621,14.656-4.695,15.95-4.69,39.865t1.641,35.76a70.629,70.629,0,0,0,6.331,21.457A28.339,28.339,0,0,0,794.9,268.3q9.145,4.221,25.326,4.221t40.334-4.456Z"/><path class="a" d="M901.794,283.312H887.255V120.334h14.539v76.917l28.139-.7,45.259-76.213h16.65L942.6,202.174l52.294,81.138H977.537l-47.368-73.633-28.375.469Z"/><path class="a" d="M1058.651,130.652q-37.758,0-37.754,28.844,0,16.884,8.559,22.747t33.534,10.786q24.973,4.926,35.644,13.6t10.669,29.079q0,26.265-13.014,37.871t-38.107,11.608a320.16,320.16,0,0,1-42.444-3.283l-8.442-1.173,1.641-12.428q32.125,3.99,49.714,3.987t26.734-8.56q9.144-8.557,9.145-25.092t-8.091-22.512q-8.09-5.979-25.8-9.262t-25.912-5.98a57.7,57.7,0,0,1-15.359-7.738,27.8,27.8,0,0,1-10.2-12.9q-3.051-7.854-3.048-19.815,0-42.678,51.59-42.679,15.476,0,40.334,3.283l7.738,1.172-1.173,12.429Q1072.253,130.654,1058.651,130.652Z"/><path class="a" d="M1150.241,235.474q0,37.055,40.569,37.051,21.105,0,31.658-8.677t10.552-28.374V120.334h14.539v115.14q0,26.5-14.3,38.341T1191.4,285.657q-27.558,0-41.507-11.842t-13.952-38.341V120.334h14.3Z"/><path class="a" d="M1297.724,219.059v64.253h-14.539V120.334h59.8q25.557,0,38.107,11.608t12.545,36.7q0,39.164-31.423,47.6l33.534,67.067h-16.181l-32.127-64.253Zm80.9-50.183q0-18.291-8.677-26.967t-26.967-8.677h-45.259v72.93h45.259Q1378.626,206.162,1378.627,168.876Z"/><path class="a" d="M1437.034,219.059v64.253H1422.5V120.334h59.8q25.557,0,38.106,11.608t12.545,36.7q0,39.164-31.423,47.6l33.534,67.067h-16.18l-32.127-64.253Zm80.9-50.183q0-18.291-8.676-26.967t-26.967-8.677h-45.259v72.93h45.259Q1517.935,206.162,1517.936,168.876Z"/><path class="a" d="M1561.805,283.312V120.334h97.788v13.132h-83.249v60.5h69.178v12.9h-69.178v63.55h83.249v12.9Z"/><path class="a" d="M1735.594,283.312h-14.539V214.369l-52.293-94.035h16.18l43.383,79.027,43.148-79.027h16.415l-52.294,94.035Z"/><path class="a" d="M1797.293,197.562h29.4q24.743,0,24.745,21.192,0,15.927-11.883,20.335,15.189,4.167,15.191,20.58,0,13.232-6.554,18.437t-19.172,5.206h-31.727Zm29.4,4.165H1801.7v35.648h26.338q9.922,0,14.393-4.534t4.472-13.719q0-9.187-4.9-13.291T1826.693,201.727Zm1.348,39.813H1801.7v37.607h27.317q10.168,0,15.681-4.349t5.513-15.129Q1850.214,241.542,1828.041,241.54Z"/><path class="a" d="M1870.843,283.312v-85.75h50.1v4.165h-45.692v35.648H1913.6v4.165h-38.342v37.607h45.692v4.165Z"/><path class="a" d="M1926.717,201.727v-4.165h61.25v4.165h-28.3v81.585h-4.41V201.727Z"/><path class="a" d="M1990.1,283.312l26.338-85.75h12.986l26.336,85.75h-4.41l-7.962-26.338h-40.915l-7.963,26.338Zm29.4-81.585-15.68,51.082h38.22l-15.68-51.082Z"/></svg>