<?xml version="1.0" encoding="UTF-8" standalone="no"?>
<!-- Generator: Adobe Illustrator 21.0.2, SVG Export Plug-In . SVG Version: 6.00 Build 0)  -->

<svg
   xmlns:dc="http://purl.org/dc/elements/1.1/"
   xmlns:cc="http://creativecommons.org/ns#"
   xmlns:rdf="http://www.w3.org/1999/02/22-rdf-syntax-ns#"
   xmlns:svg="http://www.w3.org/2000/svg"
   xmlns="http://www.w3.org/2000/svg"
   xmlns:sodipodi="http://sodipodi.sourceforge.net/DTD/sodipodi-0.dtd"
   xmlns:inkscape="http://www.inkscape.org/namespaces/inkscape"
   version="1.1"
   id="Layer_1"
   x="0px"
   y="0px"
   viewBox="0 0 374.39999 98.900002"
   xml:space="preserve"
   sodipodi:docname="accenture.svg"
   width="374.39999"
   height="98.900002"
   inkscape:version="0.92.2 (5c3e80d, 2017-08-06)"><metadata
     id="metadata31"><rdf:RDF><cc:Work
         rdf:about=""><dc:format>image/svg+xml</dc:format><dc:type
           rdf:resource="http://purl.org/dc/dcmitype/StillImage" /><dc:title></dc:title></cc:Work></rdf:RDF></metadata><defs
     id="defs29" /><sodipodi:namedview
     pagecolor="#ffffff"
     bordercolor="#666666"
     borderopacity="1"
     objecttolerance="10"
     gridtolerance="10"
     guidetolerance="10"
     inkscape:pageopacity="0"
     inkscape:pageshadow="2"
     inkscape:window-width="1366"
     inkscape:window-height="704"
     id="namedview27"
     showgrid="false"
     fit-margin-top="0"
     fit-margin-left="0"
     fit-margin-right="0"
     fit-margin-bottom="0"
     inkscape:zoom="0.78"
     inkscape:cx="187.2"
     inkscape:cy="49.5"
     inkscape:window-x="0"
     inkscape:window-y="27"
     inkscape:window-maximized="1"
     inkscape:current-layer="Layer_1" /><style
     type="text/css"
     id="style2">
	.st0{fill:#AA1133;}
</style><g
     id="g24"
     transform="translate(-12.8,-7.6)"><path
       d="m 12.8,92 c 0.1,-0.3 0.2,-0.7 0.3,-1 0.6,-4.5 3,-7.7 7.1,-9.6 2.4,-1.2 5,-1.8 7.7,-2.1 C 30,79 32.2,79 34.3,79 c 1.4,0 2.9,0 4.3,0 0.1,-0.1 0.1,-0.1 0.1,-0.2 0.1,-1.4 0.1,-2.9 -0.2,-4.3 -0.6,-2.7 -2.2,-4.1 -5,-4.5 -1,-0.1 -2.1,-0.1 -3.1,0.1 -2.4,0.6 -3.8,2.1 -4.4,4.5 -0.1,0.3 -0.1,0.5 -0.2,0.9 -3.8,0 -7.6,0 -11.5,0 -0.1,-0.6 0.1,-1.2 0.2,-1.8 1.1,-5.4 4.3,-8.9 9.3,-10.9 3,-1.2 6.1,-1.5 9.3,-1.5 2.8,0 5.5,0.3 8.1,1.2 1.6,0.5 3.1,1.3 4.5,2.4 2.8,2.2 4.3,5 4.8,8.4 0.2,1.2 0.3,2.4 0.3,3.7 0,9.1 0,18.3 0,27.4 0,0.3 0,0.6 0,1 -4,0 -7.9,0 -11.8,0 0,-1.6 0,-3.1 0,-4.7 -0.2,0.2 -0.3,0.3 -0.4,0.4 -2.2,2.9 -5.2,4.5 -8.8,5.1 -0.8,0.1 -1.6,0.2 -2.4,0.3 -0.1,0 -0.3,0 -0.4,0 -0.3,0 -0.6,-0.1 -0.9,-0.1 -1.4,-0.1 -2.7,-0.3 -4,-0.6 -5,-1.5 -8.1,-4.7 -8.8,-10 0,-0.3 -0.2,-0.6 -0.3,-0.9 -0.2,-1.1 -0.2,-2 -0.2,-2.9 z m 25.9,-5.1 c -0.6,0 -1.1,0 -1.6,0 -2,0.1 -4.1,0.1 -6.1,0.2 -1.3,0.1 -2.6,0.4 -3.8,1.1 -1.2,0.7 -2,1.7 -2.2,3.1 -0.1,0.6 -0.1,1.3 -0.1,1.9 0.1,2.2 1.3,3.8 3.5,4.3 2.3,0.6 4.6,0.4 6.8,-0.7 1.9,-1 3.2,-2.6 3.4,-4.8 0.1,-1.6 0.1,-3.3 0.1,-5.1 z"
       id="path4"
       inkscape:connector-curvature="0" /><path
       d="m 167.9,106.4 c -0.5,0 -0.9,-0.1 -1.4,-0.1 -2.9,-0.2 -5.8,-0.8 -8.5,-2 -4.9,-2.3 -8,-6.2 -9.6,-11.3 -0.7,-2.2 -1,-4.4 -1.1,-6.7 -0.2,-3.5 0,-7 1,-10.4 1.2,-4.1 3.3,-7.7 6.7,-10.4 2.8,-2.2 6,-3.5 9.5,-3.9 3.7,-0.5 7.3,-0.3 10.9,0.9 6.3,2.1 10,6.5 11.5,12.9 0.5,2 0.6,4.1 0.7,6.2 0,1.5 0,3 0,4.6 0,0.2 0,0.4 -0.1,0.7 -9.3,0 -18.6,0 -28,0 0.1,0.6 0.1,1.1 0.1,1.5 0.2,1.3 0.4,2.6 0.9,3.8 1.3,3.3 3.7,5.1 7.2,5.3 1.2,0.1 2.4,0 3.6,-0.4 2.3,-0.7 3.9,-2.2 4.7,-4.4 0.1,-0.2 0.2,-0.5 0.3,-0.7 0,0 0,0 0.1,-0.1 3.6,0 7.3,0 11,0 0,0.3 -0.1,0.6 -0.1,0.8 -1.3,6 -4.9,9.9 -10.6,12.1 -2.2,0.9 -4.6,1.3 -6.9,1.4 -0.4,0 -0.8,0.1 -1.2,0.1 -0.2,0.1 -0.5,0.1 -0.7,0.1 z m -8.2,-27.7 c 1,0.2 15.6,0.1 16.1,-0.1 -0.1,-1.9 -0.4,-3.8 -1.3,-5.5 -0.9,-1.7 -2.3,-2.8 -4.2,-3.2 -0.5,-0.1 -1,-0.2 -1.5,-0.2 -2.2,-0.2 -4.3,0.2 -6,1.8 -2,2 -2.7,4.6 -3.1,7.2 z"
       id="path6"
       inkscape:connector-curvature="0" /><path
       d="m 367.6,106.4 c -0.5,0 -1,-0.1 -1.5,-0.1 -2.8,-0.2 -5.5,-0.7 -8.1,-1.9 -5,-2.3 -8.2,-6.1 -9.9,-11.3 -1.3,-3.9 -1.4,-8 -1.1,-12.1 0.2,-2.9 0.8,-5.7 2,-8.3 2.9,-6.3 7.8,-10 14.6,-11.1 3.4,-0.6 6.8,-0.4 10.1,0.4 6.8,1.8 11,6.1 12.7,12.8 0.4,1.5 0.6,3 0.7,4.6 0,0.2 0.1,0.5 0.1,0.7 0,2.2 0,4.4 0,6.6 -0.3,0 -0.7,0 -1,0 -8.7,0 -17.3,0 -26,0 -0.3,0 -0.6,0 -1.1,0 0.1,0.8 0.1,1.4 0.2,2.1 0.3,1.8 0.7,3.5 1.6,5 0.9,1.5 2.2,2.6 3.9,3.2 1.7,0.5 3.4,0.6 5.1,0.3 2.9,-0.5 4.9,-2.1 5.8,-4.9 0.1,-0.2 0.1,-0.4 0.2,-0.5 1.1,-0.2 10.5,-0.1 11,0.1 0,0.2 0,0.4 0,0.7 0,0.2 -0.1,0.3 -0.1,0.5 -1.2,5 -4.2,8.7 -8.8,11 -2.7,1.3 -5.5,1.9 -8.4,2.1 -0.5,0 -1,0.1 -1.5,0.1 -0.1,0 -0.3,0 -0.5,0 z m 7.8,-27.6 c -0.1,-2 -0.4,-3.9 -1.3,-5.6 -0.9,-1.6 -2.3,-2.7 -4.1,-3.1 -0.5,-0.1 -1,-0.2 -1.5,-0.3 -3.4,-0.3 -6.2,1 -7.8,4.2 -0.7,1.4 -1.1,2.8 -1.3,4.3 0,0.1 0,0.3 0,0.4 5.4,0.1 10.7,0.1 16,0.1 z"
       id="path8"
       inkscape:connector-curvature="0" /><path
       d="m 284.5,106.4 c -0.3,0 -0.6,-0.1 -0.9,-0.1 -1.3,-0.1 -2.6,-0.3 -3.8,-0.7 -4.2,-1.4 -6.6,-4.4 -7.8,-8.6 -0.5,-1.7 -0.7,-3.4 -0.7,-5.2 0,-9.6 0,-19.2 0,-28.7 0,-0.2 0,-0.5 0,-0.8 4.1,0 8.1,0 12.1,0 0,0.3 0,0.6 0,0.9 0,8.7 0,17.4 0,26.1 0,1.1 0,2.2 0.3,3.3 0.6,2.5 2.3,4 4.9,4.2 1.1,0.1 2.2,0.1 3.3,-0.2 2.9,-0.8 4.6,-2.7 5.1,-5.6 0.1,-0.7 0.2,-1.4 0.2,-2.2 0,-8.5 0,-17.1 0,-25.6 0,-0.3 0,-0.6 0,-0.9 0.6,-0.2 10.9,-0.2 12,-0.1 0,14.3 0,28.7 0,43 -0.5,0.2 -10.8,0.2 -12,0.1 0,-1 0,-2 0,-2.9 0,-1 0,-1.9 -0.1,-2.9 -0.1,0.2 -0.2,0.4 -0.3,0.5 -2.1,3.5 -5.3,5.5 -9.3,6.1 -0.6,0.1 -1.2,0.1 -1.9,0.2 -0.2,0 -0.4,0.1 -0.7,0.1 -0.1,0 -0.2,0 -0.4,0 z"
       id="path10"
       inkscape:connector-curvature="0" /><path
       d="m 77.8,106.4 c -0.5,0 -0.9,-0.1 -1.4,-0.1 -3,-0.2 -5.9,-0.8 -8.6,-2.2 -4.7,-2.4 -7.6,-6.3 -9.1,-11.2 -1.1,-3.5 -1.3,-7.2 -1.1,-10.9 0.2,-2.8 0.6,-5.6 1.7,-8.2 2.8,-6.8 7.9,-10.8 15.1,-12 3.9,-0.7 7.8,-0.4 11.6,0.9 5.8,2 9.3,6.1 10.7,12 0.2,0.8 0.3,1.7 0.4,2.5 0,0.1 0,0.3 0,0.5 -3.8,0 -7.7,0 -11.5,0 -0.1,-0.3 -0.2,-0.7 -0.3,-1 -0.2,-0.7 -0.4,-1.3 -0.7,-2 -1.3,-2.9 -3.8,-4.1 -6.9,-3.9 -3,0.3 -5,1.8 -6.3,4.5 -0.9,1.7 -1.3,3.6 -1.4,5.5 -0.2,2.9 -0.2,5.7 0.3,8.6 0.2,1.2 0.5,2.4 1.1,3.5 1.5,3.3 4.4,4.8 8,4.5 3.3,-0.3 5.4,-2.3 6.5,-5.3 0.3,-0.8 0.5,-1.6 0.7,-2.4 3.6,0 7.2,0 10.9,0 0.1,0.7 -0.1,1.3 -0.2,1.9 -0.7,4 -2.3,7.5 -5.3,10.2 -2.4,2.2 -5.2,3.5 -8.4,4.1 -1.4,0.3 -2.9,0.3 -4.3,0.5 -0.2,0 -0.4,0.1 -0.7,0.1 -0.4,-0.1 -0.6,-0.1 -0.8,-0.1 z"
       id="path12"
       inkscape:connector-curvature="0" /><path
       d="m 122.7,106.4 c -0.5,0 -0.9,-0.1 -1.4,-0.1 -3.2,-0.2 -6.3,-0.9 -9.1,-2.5 -4.3,-2.3 -7,-5.9 -8.5,-10.5 -0.8,-2.4 -1.2,-4.8 -1.3,-7.3 -0.2,-3.5 0,-6.9 1,-10.2 1.4,-4.9 4.1,-8.9 8.6,-11.6 2.7,-1.6 5.6,-2.5 8.7,-2.8 3.5,-0.3 7,-0.1 10.3,1.1 5.7,2 9.2,6.1 10.6,12 0.2,0.8 0.3,1.6 0.4,2.4 0,0.2 0,0.3 0,0.5 -3.8,0 -7.6,0 -11.5,0 -0.1,-0.3 -0.2,-0.6 -0.3,-0.9 -0.2,-0.7 -0.4,-1.3 -0.7,-2 -1.3,-2.9 -3.7,-4.2 -6.9,-3.9 -2.9,0.2 -5,1.7 -6.3,4.3 -0.9,1.8 -1.4,3.7 -1.5,5.7 -0.2,2.9 -0.2,5.7 0.3,8.6 0.2,1.2 0.6,2.4 1.1,3.6 1.6,3.3 4.4,4.7 7.9,4.4 3.1,-0.3 5.2,-2.1 6.4,-4.9 0.4,-0.9 0.6,-1.8 0.9,-2.8 3.6,0 7.2,0 10.9,0 -0.1,0.7 -0.1,1.3 -0.2,1.9 -0.7,4.1 -2.4,7.7 -5.6,10.5 -2.6,2.2 -5.6,3.5 -8.9,4.1 -1.2,0.2 -2.3,0.2 -3.5,0.4 -0.2,0 -0.4,0.1 -0.7,0.1 -0.3,-0.1 -0.5,-0.1 -0.7,-0.1 z"
       id="path14"
       inkscape:connector-curvature="0" /><path
       class="st0"
       d="m 231.2,7.6 c 0.3,0.1 0.5,0.3 0.8,0.4 11.7,4.7 23.5,9.5 35.2,14.2 0.8,0.3 0.7,0.2 0.7,1.1 0,2.6 0,5.1 0,7.7 0,0.2 0,0.5 0,0.8 -12.3,5 -24.6,9.9 -36.9,14.9 0,-3.9 0,-7.7 0,-11.5 7.1,-2.6 14.2,-5.3 21.3,-7.9 0,-0.1 0,-0.1 0,-0.2 -7.1,-2.8 -14.2,-5.5 -21.3,-8.3 0,-3.7 0,-7.5 0,-11.2 0.1,0 0.2,0 0.2,0 z"
       id="path16"
       inkscape:connector-curvature="0"
       style="fill:#aa1133" /><path
       d="m 195,62.3 c 4,0 8,0 12,0 0,2 0,4 0,6 0,0 0.1,0 0.1,0 0.1,-0.2 0.3,-0.4 0.4,-0.6 2.3,-3.6 5.7,-5.5 9.8,-6.2 2.1,-0.3 4.2,-0.3 6.3,0.2 4.1,0.9 6.8,3.4 8.2,7.3 0.8,2.3 1.2,4.6 1.2,7 0,9.5 0,19.1 0,28.6 0,0.2 0,0.4 0,0.7 -4,0 -8,0 -12,0 0,-0.3 0,-0.6 0,-0.9 0,-8.6 0,-17.3 0,-25.9 0,-0.9 -0.1,-1.7 -0.2,-2.6 -0.4,-2.8 -2,-4.3 -4.8,-4.7 -1.3,-0.2 -2.6,-0.1 -3.9,0.2 -2.7,0.8 -4.3,2.7 -4.9,5.4 -0.2,0.8 -0.2,1.6 -0.2,2.5 0,8.4 0,16.7 0,25.1 0,0.3 0,0.6 0,0.9 -0.6,0.2 -11.1,0.2 -12,0.1 0,-14.4 0,-28.7 0,-43.1 z"
       id="path18"
       inkscape:connector-curvature="0" /><path
       d="m 243.5,71.2 c -1.7,0 -3.3,0 -5,0 0,-3 0,-5.9 0,-9 1.6,0 3.3,0 4.9,0 0,-2.7 0,-5.4 0,-8.1 4,-1.6 8,-3.3 12.1,-4.9 0.2,0.3 0.1,0.6 0.1,0.9 0,3.7 0,7.4 0,11.2 0,0.3 0,0.6 0,1 2.8,0 5.4,0 8.1,0 0.2,0.6 0.2,7.8 0.1,9 -2.7,0 -5.4,0 -8.2,0 0,0.4 0,0.6 0,0.9 0,6.5 0,13 0,19.5 0,0.6 0.1,1.3 0.2,1.9 0.4,1.8 1.6,2.8 3.5,2.9 1.5,0.1 2.9,0 4.4,-0.5 0.1,0 0.2,-0.1 0.4,-0.1 0,3.1 0,6.2 0,9.4 -0.4,0.1 -0.8,0.2 -1.3,0.3 -3.7,0.8 -7.4,0.9 -11,-0.1 -2.8,-0.7 -5,-2.1 -6.5,-4.7 -1,-1.7 -1.5,-3.5 -1.6,-5.4 -0.1,-1 -0.1,-2.1 -0.1,-3.1 0,-6.6 0,-13.3 0,-19.9 -0.1,-0.5 -0.1,-0.8 -0.1,-1.2 z"
       id="path20"
       inkscape:connector-curvature="0" /><path
       d="m 330.3,69.8 c 2.5,-5.5 6.7,-8.2 12.8,-8.1 0,4 0,7.9 0,11.8 -0.3,0 -0.7,0.1 -1,0.1 -1.9,0 -3.8,0.2 -5.6,0.8 -0.5,0.2 -1.1,0.4 -1.6,0.6 -2.6,1.2 -4.1,3.3 -4.5,6.1 -0.1,0.9 -0.2,1.8 -0.2,2.7 0,6.9 0,13.8 0,20.7 0,0.3 0,0.6 0,0.9 -4,0 -8,0 -12,0 0,-14.4 0,-28.7 0,-43.1 4,0 8,0 12,0 0,2.5 0,5 0,7.4 0,0 0.1,0 0.1,0.1 z"
       id="path22"
       inkscape:connector-curvature="0" /></g></svg>