<?xml version="1.0" encoding="UTF-8" standalone="no"?>
<!-- Generator: Adobe Illustrator 21.1.0, SVG Export Plug-In . SVG Version: 6.00 Build 0)  -->

<svg
   xmlns:dc="http://purl.org/dc/elements/1.1/"
   xmlns:cc="http://creativecommons.org/ns#"
   xmlns:rdf="http://www.w3.org/1999/02/22-rdf-syntax-ns#"
   xmlns:svg="http://www.w3.org/2000/svg"
   xmlns="http://www.w3.org/2000/svg"
   xmlns:sodipodi="http://sodipodi.sourceforge.net/DTD/sodipodi-0.dtd"
   xmlns:inkscape="http://www.inkscape.org/namespaces/inkscape"
   version="1.1"
   id="Layer_1"
   x="0px"
   y="0px"
   viewBox="0 0 292.55908 74.999998"
   xml:space="preserve"
   sodipodi:docname="accenture.svg"
   width="77.40625mm"
   height="19.84375mm"
   inkscape:version="0.92.2 (5c3e80d, 2017-08-06)"><metadata
     id="metadata15"><rdf:RDF><cc:Work
         rdf:about=""><dc:format>image/svg+xml</dc:format><dc:type
           rdf:resource="http://purl.org/dc/dcmitype/StillImage" /><dc:title></dc:title></cc:Work></rdf:RDF></metadata><defs
     id="defs13" /><sodipodi:namedview
     pagecolor="#ffffff"
     bordercolor="#666666"
     borderopacity="1"
     objecttolerance="10"
     gridtolerance="10"
     guidetolerance="10"
     inkscape:pageopacity="0"
     inkscape:pageshadow="2"
     inkscape:window-width="1366"
     inkscape:window-height="704"
     id="namedview11"
     showgrid="false"
     units="mm"
     fit-margin-left="1"
     fit-margin-right="1"
     fit-margin-top="0"
     fit-margin-bottom="0"
     inkscape:zoom="3.8235295"
     inkscape:cx="126.47093"
     inkscape:cy="51.032748"
     inkscape:window-x="0"
     inkscape:window-y="27"
     inkscape:window-maximized="1"
     inkscape:current-layer="Layer_1" /><style
     type="text/css"
     id="style2">
	.st0{fill:#A100FF;}
</style><g
     id="g8"
     transform="matrix(1.744186,0,0,1.744186,3.7795276,0)"><polygon
       class="st0"
       points="95.1,0 111.2,6.5 111.2,10.5 95.1,17 95.1,12 104.5,8.5 95.1,4.9 "
       id="polygon4"
       style="fill:#a100ff" /><path
       d="M 6.2,43 C 2.8,43 0,41.3 0,37.5 v -0.2 c 0,-4.6 4,-6.2 8.9,-6.2 h 2.3 v -0.9 c 0,-1.9 -0.8,-3 -2.8,-3 -1.8,0 -2.7,1 -2.8,2.4 h -5 c 0.4,-4.2 3.7,-6.2 8.1,-6.2 4.5,0 7.8,1.9 7.8,6.6 V 42.6 H 11.4 V 40.4 C 10.4,41.8 8.7,43 6.2,43 Z m 5,-6.6 V 34.6 H 9.1 c -2.6,0 -3.9,0.7 -3.9,2.4 v 0.2 c 0,1.3 0.8,2.2 2.6,2.2 1.8,-0.1 3.4,-1.1 3.4,-3 z M 28.4,43 c -5.2,0 -9,-3.2 -9,-9.6 v -0.3 c 0,-6.4 4,-9.8 9,-9.8 4.3,0 7.8,2.2 8.2,7.1 h -5 c -0.3,-1.8 -1.3,-3 -3.1,-3 -2.2,0 -3.8,1.8 -3.8,5.5 v 0.6 c 0,3.8 1.4,5.5 3.8,5.5 1.8,0 3.1,-1.3 3.4,-3.4 h 4.8 C 36.4,40 33.5,43 28.4,43 Z M 48,43 c -5.2,0 -9,-3.2 -9,-9.6 v -0.3 c 0,-6.4 4,-9.8 9,-9.8 4.3,0 7.8,2.2 8.2,7.1 h -5 c -0.3,-1.8 -1.3,-3 -3.1,-3 -2.2,0 -3.8,1.8 -3.8,5.5 v 0.6 c 0,3.8 1.4,5.5 3.8,5.5 1.8,0 3.1,-1.3 3.4,-3.4 h 4.8 C 56,40 53.1,43 48,43 Z m 19.7,0 c -5.4,0 -9.1,-3.2 -9.1,-9.5 v -0.4 c 0,-6.3 3.9,-9.8 9,-9.8 4.7,0 8.6,2.6 8.6,8.9 v 2.3 H 63.9 c 0.2,3.4 1.7,4.7 3.9,4.7 2,0 3.1,-1.1 3.5,-2.4 h 4.9 C 75.6,40.3 72.6,43 67.7,43 Z M 64,31 h 7 c -0.1,-2.8 -1.4,-4 -3.5,-4 -1.6,0.1 -3.1,1 -3.5,4 z m 15.4,-7.2 h 5.3 v 2.8 c 0.9,-1.8 2.8,-3.2 5.7,-3.2 3.4,0 5.7,2.1 5.7,6.6 V 42.6 H 90.8 V 30.8 c 0,-2.2 -0.9,-3.2 -2.8,-3.2 -1.8,0 -3.3,1.1 -3.3,3.5 v 11.5 h -5.3 z m 26.4,-5.7 v 5.7 h 3.6 v 3.9 h -3.6 v 8.9 c 0,1.4 0.6,2.1 1.9,2.1 0.8,0 1.3,-0.1 1.8,-0.3 v 4.1 c -0.6,0.2 -1.7,0.4 -3,0.4 -4.1,0 -6,-1.9 -6,-5.7 v -9.5 h -2.2 v -3.9 h 2.2 v -3.5 z m 23.4,24.5 H 124 v -2.8 c -0.9,1.8 -2.7,3.2 -5.5,3.2 -3.4,0 -5.9,-2.1 -5.9,-6.5 V 23.8 h 5.3 v 12 c 0,2.2 0.9,3.2 2.7,3.2 1.8,0 3.3,-1.2 3.3,-3.5 V 23.8 h 5.3 z m 3.9,-18.8 h 5.3 v 3.5 c 1.1,-2.5 2.9,-3.7 5.7,-3.7 v 5.2 c -3.6,0 -5.7,1.1 -5.7,4.2 v 9.7 h -5.3 z M 154.8,43 c -5.4,0 -9.1,-3.2 -9.1,-9.5 v -0.4 c 0,-6.3 3.9,-9.8 9,-9.8 4.7,0 8.6,2.6 8.6,8.9 v 2.3 h -12.2 c 0.2,3.4 1.7,4.7 3.9,4.7 2,0 3.1,-1.1 3.5,-2.4 h 4.9 c -0.8,3.5 -3.7,6.2 -8.6,6.2 z M 151,31 h 7.1 c -0.1,-2.8 -1.4,-4 -3.5,-4 -1.6,0.1 -3.1,1 -3.6,4 z"
       id="path6"
       inkscape:connector-curvature="0" /></g></svg>