<?xml version="1.0" encoding="UTF-8" standalone="no"?>
<!-- Generator: Adobe Illustrator 19.1.0, SVG Export Plug-In . SVG Version: 6.00 Build 0)  -->

<svg
   xmlns:dc="http://purl.org/dc/elements/1.1/"
   xmlns:cc="http://creativecommons.org/ns#"
   xmlns:rdf="http://www.w3.org/1999/02/22-rdf-syntax-ns#"
   xmlns:svg="http://www.w3.org/2000/svg"
   xmlns="http://www.w3.org/2000/svg"
   xmlns:sodipodi="http://sodipodi.sourceforge.net/DTD/sodipodi-0.dtd"
   xmlns:inkscape="http://www.inkscape.org/namespaces/inkscape"
   version="1.1"
   id="Layer_2"
   x="0px"
   y="0px"
   viewBox="0 0 1262.5324 481.00001"
   xml:space="preserve"
   sodipodi:docname="compsoc.svg"
   inkscape:version="0.92.2 (5c3e80d, 2017-08-06)"
   width="1262.5323"
   height="481"><metadata
     id="metadata73"><rdf:RDF><cc:Work
         rdf:about=""><dc:format>image/svg+xml</dc:format><dc:type
           rdf:resource="http://purl.org/dc/dcmitype/StillImage" /><dc:title></dc:title></cc:Work></rdf:RDF></metadata><defs
     id="defs71" /><sodipodi:namedview
     pagecolor="#ffffff"
     bordercolor="#666666"
     borderopacity="1"
     objecttolerance="10"
     gridtolerance="10"
     guidetolerance="10"
     inkscape:pageopacity="0"
     inkscape:pageshadow="2"
     inkscape:window-width="1366"
     inkscape:window-height="704"
     id="namedview69"
     showgrid="false"
     inkscape:zoom="0.39643878"
     inkscape:cx="522.79109"
     inkscape:cy="206.4482"
     inkscape:window-x="0"
     inkscape:window-y="27"
     inkscape:window-maximized="1"
     inkscape:current-layer="Layer_2"
     fit-margin-left="1"
     fit-margin-right="1"
     fit-margin-top="0"
     fit-margin-bottom="0" /><style
     type="text/css"
     id="style2">
	.st0{fill:none;stroke:#FFFFFF;stroke-width:9;stroke-miterlimit:10;}
</style><g
     id="g6"
     style="stroke:#004684;stroke-opacity:1"
     transform="translate(-55.799995,-59.799995)"><path
       class="st0"
       d="M 231.9,305.6 90.8,209.2 c -0.5,-0.3 -0.8,-1 -0.8,-1.6 v -87.9 c 0,-0.6 0,-1.5 0,-2 V 94.8"
       id="path4"
       style="fill:none;stroke:#004684;stroke-width:9;stroke-miterlimit:10;stroke-opacity:1"
       inkscape:connector-curvature="0" /></g><line
     class="st0"
     x1="34.200005"
     y1="58.900002"
     x2="68.400002"
     y2="17.000006"
     id="line8"
     style="fill:#2b0000;stroke:#004684;stroke-width:9;stroke-miterlimit:10;stroke-opacity:1" /><polyline
     class="st0"
     points="90,169.3 68.2,150.9 68.2,133 "
     id="polyline10"
     style="fill:none;stroke:#004684;stroke-width:9;stroke-miterlimit:10;stroke-opacity:1"
     transform="translate(-55.799995,-59.799995)" /><circle
     class="st0"
     cx="34.200005"
     cy="27.4"
     r="6.9000001"
     id="circle12"
     style="fill:none;stroke:#004684;stroke-width:9;stroke-miterlimit:10;stroke-opacity:1" /><circle
     class="st0"
     cx="73.000008"
     cy="11.4"
     r="6.9000001"
     id="circle14"
     style="fill:none;stroke:#004684;stroke-width:9;stroke-miterlimit:10;stroke-opacity:1" /><circle
     class="st0"
     cx="12.4"
     cy="65.900002"
     r="6.9000001"
     id="circle16"
     style="fill:none;stroke:#004684;stroke-width:9;stroke-miterlimit:10;stroke-opacity:1" /><circle
     class="st0"
     cx="71.900002"
     cy="134.7"
     r="6.9000001"
     id="circle18"
     style="fill:none;stroke:#004684;stroke-width:9;stroke-miterlimit:10;stroke-opacity:1" /><line
     class="st0"
     x1="71.900002"
     y1="141.7"
     x2="71.900002"
     y2="174.7"
     id="line20"
     style="fill:none;stroke:#004684;stroke-width:9;stroke-miterlimit:10;stroke-opacity:1" /><circle
     class="st0"
     cx="110.1"
     cy="160.7"
     r="6.9000001"
     id="circle22"
     style="fill:none;stroke:#004684;stroke-width:9;stroke-miterlimit:10;stroke-opacity:1" /><line
     class="st0"
     x1="110.1"
     y1="167.7"
     x2="110.1"
     y2="200.7"
     id="line24"
     style="fill:none;stroke:#004684;stroke-width:9;stroke-miterlimit:10;stroke-opacity:1" /><circle
     class="st0"
     cx="147.3"
     cy="187.09999"
     r="6.9000001"
     id="circle26"
     style="fill:none;stroke:#004684;stroke-width:9;stroke-miterlimit:10;stroke-opacity:1" /><line
     class="st0"
     x1="147.3"
     y1="194"
     x2="147.3"
     y2="226.99998"
     id="line28"
     style="fill:none;stroke:#004684;stroke-width:9;stroke-miterlimit:10;stroke-opacity:1" /><g
     id="g32"
     style="stroke:#004684;stroke-opacity:1"
     transform="translate(-55.799995,-59.799995)"><path
       class="st0"
       d="m 278.6,283 h 49.6 c 0.6,0 1.3,0.4 1.6,0.8 l 20.7,29.7 c 0.3,0.5 0.9,0.6 1.4,0.3 L 504.5,209.2 c 0.5,-0.3 0.8,-1 0.8,-1.6 v -87.9 c 0,-0.6 0,-1.5 0,-2 V 94.8"
       id="path30"
       style="fill:none;stroke:#004684;stroke-width:9;stroke-miterlimit:10;stroke-opacity:1"
       inkscape:connector-curvature="0" /></g><line
     class="st0"
     x1="449.5"
     y1="58.900002"
     x2="415.30002"
     y2="17.000006"
     id="line34"
     style="fill:none;stroke:#004684;stroke-width:9;stroke-miterlimit:10;stroke-opacity:1" /><polyline
     class="st0"
     points="505.3,169.3 527.1,150.9 527.1,133 "
     id="polyline36"
     style="fill:none;stroke:#004684;stroke-width:9;stroke-miterlimit:10;stroke-opacity:1"
     transform="translate(-55.799995,-59.799995)" /><circle
     class="st0"
     cx="449.5"
     cy="27.4"
     r="6.9000001"
     id="circle38"
     style="fill:none;stroke:#004684;stroke-width:9;stroke-miterlimit:10;stroke-opacity:1" /><circle
     class="st0"
     cx="410.60001"
     cy="11.4"
     r="6.9000001"
     id="circle40"
     style="fill:none;stroke:#004684;stroke-width:9;stroke-miterlimit:10;stroke-opacity:1" /><circle
     class="st0"
     cx="471.29999"
     cy="65.900002"
     r="6.9000001"
     id="circle42"
     style="fill:none;stroke:#004684;stroke-width:9;stroke-miterlimit:10;stroke-opacity:1" /><circle
     class="st0"
     cx="411.80002"
     cy="134.7"
     r="6.9000001"
     id="circle44"
     style="fill:none;stroke:#004684;stroke-width:9;stroke-miterlimit:10;stroke-opacity:1" /><line
     class="st0"
     x1="411.80002"
     y1="141.7"
     x2="411.80002"
     y2="174.7"
     id="line46"
     style="fill:none;stroke:#004684;stroke-width:9;stroke-miterlimit:10;stroke-opacity:1" /><circle
     class="st0"
     cx="373.60001"
     cy="160.7"
     r="6.9000001"
     id="circle48"
     style="fill:none;stroke:#004684;stroke-width:9;stroke-miterlimit:10;stroke-opacity:1" /><line
     class="st0"
     x1="373.60001"
     y1="167.7"
     x2="373.60001"
     y2="200.7"
     id="line50"
     style="fill:none;stroke:#004684;stroke-width:9;stroke-miterlimit:10;stroke-opacity:1" /><circle
     class="st0"
     cx="336.40002"
     cy="187.09999"
     r="6.9000001"
     id="circle52"
     style="fill:none;stroke:#004684;stroke-width:9;stroke-miterlimit:10;stroke-opacity:1" /><line
     class="st0"
     x1="336.40002"
     y1="194"
     x2="336.40002"
     y2="226.99998"
     id="line54"
     style="fill:none;stroke:#004684;stroke-width:9;stroke-miterlimit:10;stroke-opacity:1" /><circle
     class="st0"
     cx="182"
     cy="249.49998"
     r="6.9000001"
     id="circle56"
     style="fill:none;stroke:#004684;stroke-width:9;stroke-miterlimit:10;stroke-opacity:1" /><circle
     class="st0"
     cx="215.8"
     cy="223.2"
     r="6.9000001"
     id="circle58"
     style="fill:none;stroke:#004684;stroke-width:9;stroke-miterlimit:10;stroke-opacity:1" /><g
     id="g62"
     style="stroke:#004684;stroke-opacity:1"
     transform="translate(-55.799995,-59.799995)"><path
       class="st0"
       d="M 301.5,450.4 H 278 c -0.5,0 -1.3,-0.3 -1.7,-0.7 l -36.9,-39.2 c -0.4,-0.4 -0.8,-0.3 -0.9,0.3 l -23.9,124.5 c -0.1,0.5 0.3,1 0.8,1 h 161.8 c 0.5,0 0.9,-0.4 0.8,-1 L 356,424.8"
       id="path60"
       style="fill:none;stroke:#004684;stroke-width:9;stroke-miterlimit:10;stroke-opacity:1"
       inkscape:connector-curvature="0" /></g><circle
     class="st0"
     cx="252.59999"
     cy="390.70001"
     r="6.9000001"
     id="circle64"
     style="fill:none;stroke:#004684;stroke-width:9;stroke-miterlimit:10;stroke-opacity:1" /><circle
     class="st0"
     cx="298.90002"
     cy="359.40002"
     r="6.9000001"
     id="circle66"
     style="fill:none;stroke:#004684;stroke-width:9;stroke-miterlimit:10;stroke-opacity:1" /><g
     aria-label="CompSoc"
     style="font-style:normal;font-variant:normal;font-weight:normal;font-stretch:normal;font-size:305.75860596px;line-height:1.25;font-family:teko;-inkscape-font-specification:teko;letter-spacing:0px;word-spacing:0px;fill:#004684;fill-opacity:1;stroke:none;stroke-width:7.64396572"
     id="text97"
     transform="translate(60.000001,-50)"><path
       d="m 478.48493,336.08261 h -28.12979 v -29.35283 q 0,-5.50365 -1.83455,-7.03245 -1.52879,-1.83455 -7.03245,-1.83455 h -15.59369 q -5.50365,0 -7.3382,1.83455 -1.83455,1.5288 -1.83455,7.03245 v 130.55893 q 0,5.50365 1.83455,7.3382 1.83455,1.52879 7.3382,1.52879 h 15.59369 q 5.50366,0 7.03245,-1.52879 1.83455,-1.83455 1.83455,-7.3382 v -29.04707 h 28.12979 v 32.41041 q 0,27.21252 -28.7413,27.21252 h -32.41042 q -28.43555,0 -28.43555,-27.21252 V 303.06068 q 0,-26.90676 28.43555,-26.90676 h 32.41042 q 28.7413,0 28.7413,26.90676 z"
       style="fill:#004684;fill-opacity:1;stroke-width:7.64396572"
       id="path917"
       inkscape:connector-curvature="0" /><path
       d="m 529.83805,318.34861 h 32.71617 q 28.43555,0 28.43555,27.21251 v 95.09093 q 0,26.90676 -28.43555,26.90676 h -32.71617 q -28.1298,0 -28.1298,-26.90676 v -95.09093 q 0,-27.21251 28.1298,-27.21251 z m 33.9392,118.32858 v -87.44696 q 0,-5.50366 -1.83455,-7.33821 -1.83455,-1.83455 -7.33821,-1.83455 h -16.81672 q -5.50366,0 -7.33821,1.83455 -1.52879,1.83455 -1.52879,7.33821 v 87.44696 q 0,5.50365 1.52879,7.3382 1.83455,1.83456 7.33821,1.83456 h 16.81672 q 5.50366,0 7.33821,-1.83456 1.83455,-1.83455 1.83455,-7.3382 z"
       style="fill:#004684;fill-opacity:1;stroke-width:7.64396572"
       id="path919"
       inkscape:connector-curvature="0" /><path
       d="m 720.06289,318.34861 h 10.70155 q 27.51827,0 27.51827,27.21251 V 467.55881 H 730.76444 V 349.53599 q 0,-5.50366 -1.83455,-7.03245 -1.5288,-1.83455 -7.03245,-1.83455 h -11.00731 q -9.78428,0 -9.78428,10.70155 V 467.55881 H 673.58758 V 349.53599 q 0,-5.50366 -1.83455,-7.03245 -1.83456,-1.83455 -7.33821,-1.83455 h -10.70155 q -5.50366,0 -7.94973,2.44606 -2.14031,2.44607 -2.14031,8.25549 v 116.18827 h -27.51827 v -149.2102 h 27.51827 v 11.92458 q 3.97487,-11.92458 18.95704,-11.92458 h 10.70155 q 19.56855,0 25.37796,13.75913 3.66911,-13.75913 21.40311,-13.75913 z"
       style="fill:#004684;fill-opacity:1;stroke-width:7.64396572"
       id="path921"
       inkscape:connector-curvature="0" /><path
       d="m 830.3892,318.34861 h 10.70155 q 27.82403,0 27.82403,27.21251 v 95.09093 q 0,26.90676 -27.82403,26.90676 H 830.3892 q -14.98217,0 -18.95704,-11.92459 v 54.11927 H 783.91389 V 318.34861 h 27.51827 v 11.92458 q 3.97487,-11.92458 18.95704,-11.92458 z m 11.00731,118.02282 v -86.83544 q 0,-5.50366 -1.83455,-7.03245 -1.83456,-1.83455 -7.33821,-1.83455 H 821.5222 q -5.50366,0 -7.94973,2.44606 -2.14031,2.44607 -2.14031,8.25549 v 83.16634 q 0,5.80941 2.14031,8.25548 2.44607,2.44607 7.94973,2.44607 h 10.70155 q 5.50365,0 7.33821,-1.52879 1.83455,-1.83456 1.83455,-7.33821 z"
       style="fill:#004684;fill-opacity:1;stroke-width:7.64396572"
       id="path923"
       inkscape:connector-curvature="0" /><path
       d="m 951.2785,436.37143 v -46.78107 q 0,-5.50365 -1.83456,-7.03245 -1.52879,-1.83455 -7.03244,-1.83455 h -22.62614 q -27.82403,0 -27.82403,-27.21251 v -50.45017 q 0,-26.90676 28.43555,-26.90676 h 29.96434 q 28.43555,0 28.43555,26.90676 v 28.12979 H 950.97274 V 307.3413 q 0,-5.50366 -1.83455,-7.03245 -1.83456,-1.83455 -7.33821,-1.83455 h -12.84186 q -5.50366,0 -7.33821,1.83455 -1.83455,1.52879 -1.83455,7.03245 v 42.50044 q 0,5.50366 1.83455,7.33821 1.83455,1.52879 7.33821,1.52879 h 22.32038 q 28.12979,0 28.12979,26.90676 v 55.03655 q 0,26.90676 -28.74131,26.90676 h -29.65859 q -28.43555,0 -28.43555,-26.90676 v -28.12979 h 27.82404 v 23.84917 q 0,5.50365 1.83455,7.33821 1.83455,1.52879 7.3382,1.52879 h 12.84187 q 5.50365,0 7.03244,-1.52879 1.83456,-1.83456 1.83456,-7.33821 z"
       style="fill:#004684;fill-opacity:1;stroke-width:7.64396572"
       id="path925"
       inkscape:connector-curvature="0" /><path
       d="m 1030.8761,318.34861 h 32.7161 q 28.4356,0 28.4356,27.21251 v 95.09093 q 0,26.90676 -28.4356,26.90676 h -32.7161 q -28.1298,0 -28.1298,-26.90676 v -95.09093 q 0,-27.21251 28.1298,-27.21251 z m 33.9392,118.32858 v -87.44696 q 0,-5.50366 -1.8346,-7.33821 -1.8345,-1.83455 -7.3382,-1.83455 h -16.8167 q -5.5037,0 -7.3382,1.83455 -1.5288,1.83455 -1.5288,7.33821 v 87.44696 q 0,5.50365 1.5288,7.3382 1.8345,1.83456 7.3382,1.83456 h 16.8167 q 5.5037,0 7.3382,-1.83456 1.8346,-1.83455 1.8346,-7.3382 z"
       style="fill:#004684;fill-opacity:1;stroke-width:7.64396572"
       id="path927"
       inkscape:connector-curvature="0" /><path
       d="m 1201.5324,365.43543 h -27.2126 v -15.89944 q 0,-5.50366 -1.8345,-7.03245 -1.8346,-1.83455 -7.3382,-1.83455 h -13.1476 q -5.5037,0 -7.3382,1.83455 -1.8346,1.52879 -1.8346,7.03245 v 86.83544 q 0,5.50365 1.8346,7.33821 1.8345,1.52879 7.3382,1.52879 h 13.1476 q 5.5036,0 7.3382,-1.52879 1.8345,-1.83456 1.8345,-7.33821 v -15.89945 h 27.2126 v 20.18007 q 0,26.90676 -28.7413,26.90676 h -29.0471 q -28.4356,0 -28.4356,-26.90676 v -95.09093 q 0,-27.21251 28.4356,-27.21251 h 29.0471 q 28.7413,0 28.7413,27.21251 z"
       style="fill:#004684;fill-opacity:1;stroke-width:7.64396572"
       id="path929"
       inkscape:connector-curvature="0" /></g></svg>