<?xml version="1.0" encoding="UTF-8" standalone="no"?>
<!-- Created with Inkscape (http://www.inkscape.org/) -->

<svg
   xmlns:dc="http://purl.org/dc/elements/1.1/"
   xmlns:cc="http://creativecommons.org/ns#"
   xmlns:rdf="http://www.w3.org/1999/02/22-rdf-syntax-ns#"
   xmlns:svg="http://www.w3.org/2000/svg"
   xmlns="http://www.w3.org/2000/svg"
   xmlns:sodipodi="http://sodipodi.sourceforge.net/DTD/sodipodi-0.dtd"
   xmlns:inkscape="http://www.inkscape.org/namespaces/inkscape"
   version="1.1"
   id="svg2"
   xml:space="preserve"
   width="741.94666"
   height="293.33334"
   viewBox="0 0 741.94666 293.33334"
   sodipodi:docname="union.svg"
   inkscape:version="0.92.2 (5c3e80d, 2017-08-06)"><metadata
     id="metadata8"><rdf:RDF><cc:Work
         rdf:about=""><dc:format>image/svg+xml</dc:format><dc:type
           rdf:resource="http://purl.org/dc/dcmitype/StillImage" /><dc:title></dc:title></cc:Work></rdf:RDF></metadata><defs
     id="defs6" /><sodipodi:namedview
     pagecolor="#ffffff"
     bordercolor="#666666"
     borderopacity="1"
     objecttolerance="10"
     gridtolerance="10"
     guidetolerance="10"
     inkscape:pageopacity="0"
     inkscape:pageshadow="2"
     inkscape:window-width="640"
     inkscape:window-height="480"
     id="namedview4"
     showgrid="false"
     inkscape:zoom="0.47847106"
     inkscape:cx="370.97333"
     inkscape:cy="146.66667"
     inkscape:window-x="0"
     inkscape:window-y="27"
     inkscape:window-maximized="0"
     inkscape:current-layer="g10" /><g
     id="g10"
     inkscape:groupmode="layer"
     inkscape:label="ink_ext_XXXXXX"
     transform="matrix(1.3333333,0,0,-1.3333333,0,293.33333)"><g
       id="g12"
       transform="scale(0.1)"><path
         d="m 207.797,2029.89 c 13.312,23.24 18.023,26.51 47.508,63.34 33.855,42.34 88.586,93.53 88.586,93.53 C 297.422,2058.93 269.77,2064.78 238.559,1977.45 225.82,1941.66 186,1916.98 173.84,1883.71 c -14.121,-38.5 -37.402,-217.67 -18.824,-283.88 18.699,-66.21 99.027,-136.03 99.027,-136.03 0,0 14.121,37.58 12.738,99.77 -1.726,86.86 43.375,115.44 43.375,115.44 0,0 -28.238,-160.53 30.407,-255.08 26.042,-42.05 57.945,-70.17 88.582,-89.73 6.761,-4.25 -5.852,-0.58 -2.176,72.17 -2.297,111.08 15.261,148.59 15.261,148.59 0,0 4.583,-30.68 27.758,-95.97 19.043,-53.88 1.727,-123.07 72.067,-177.63 l 59.66,-28.97 c 0,0 -17.785,40.1 -18.695,82.84 -0.7,33.16 4.695,123 4.695,123 0,0 14.808,-14.68 29.031,-42.68 18.25,-35.91 -4.82,-133.56 69.078,-184.39 27.203,-18.71 10.563,-5.05 63.223,-47.33 47.508,-38.15 57.027,-21.41 153.758,-71.49 l 118.195,9.87 123.57,-9.81 c 0,0 91.46,28.22 121.06,50.6 47.39,35.85 49.57,30.46 64.49,39.7 28.23,17.56 42.33,19.28 78.02,144.29 21.86,76.65 36.83,112.16 36.83,112.16 0,0 7.59,2.76 14.47,-31.09 3.9,-19.45 3.9,-33.74 -9.93,-108.09 -5.46,-28.75 -3.28,-33.85 -2.35,-78.95 0,0 67.58,32.48 96.9,91.17 27.71,55.6 25.94,80.84 32.64,121.57 3.11,19.17 11.54,78.84 18.82,113.14 0,0 24.68,-58.11 23.42,-120.94 -0.69,-32.36 -14.57,-98.46 -2.59,-88.24 53.76,46.07 161.39,48.48 158.81,173.96 -0.53,25.01 11.48,151.58 11.48,151.58 0,0 33.67,-10.56 31.14,-103.39 -0.11,-5.39 8.09,-50.32 7.13,-55.31 -8.51,-43.77 14.32,-22.95 70.72,86.87 54.92,107.05 31.97,168.55 30.99,216.52 -0.4,17.6 -4.19,53.58 -10.09,91 -12.92,82.03 -28.53,123.11 -76.2,168.84 -95.53,91.5 -92.54,112.16 -92.54,112.16 0,0 137.12,-75.16 165.69,-135.4 16.07,-33.85 29.79,-61.85 29.79,-61.85 10.26,0.23 23.23,31.44 22.77,53.42 -0.92,48.59 7.79,95.92 7.79,95.92 0,0 28.46,-38.32 30.54,-134.77 0.8,-41.48 -38.68,-107.28 -19.98,-194.2 9.17,-43.03 4.48,-63.05 13.08,-23.3 7.34,33.75 23.18,55.37 28.47,74.3 15.71,56.11 20.53,69.65 20.53,69.65 0,0 14.81,-14.91 -9.35,-110.61 -24.27,-96.32 -21.81,-127.02 -36.89,-156.74 -12.69,-25.01 -8.5,-20.94 -17.21,-45.44 -9.99,-28.11 -32.13,-86.8 -47.34,-102.7 -24.38,-25.35 -26.45,-56.34 -45.09,-75.21 -128.39,-129.6 -152.67,-126.05 -178.83,-153.25 -6.37,-6.65 -150.08,-85.99 -208.25,-123.12 -30.14,-19.21 -46.03,-40.45 -82.34,-58.34 -56.11,-27.65 -82.74,-63.75 -101.21,-77.05 -28.63,-20.66 -44.69,-44.522 -44.69,-44.522 0,0 -27.19,-12.968 65.4,17.782 110.28,36.72 165.81,13.31 195.47,12.28 15.1,-0.46 3.1,-55.14 -110.21,-160.07 -87.15,-80.73 -155.31,-44.351 -155.31,-44.351 0,0 -17.95,-117.848 -13.37,-154.84 4.47,-35.289 16.52,-20.777 37.17,-124.098 25.95,-295.242 84.12,-486.4215 84.12,-486.4215 0,0 -186.28,-58.05075 -378.778,-57.0077812 C 827.074,0.800781 638.32,61.5 638.32,61.5 c 0,0 67.934,292.328 97.418,539.48 4.821,41.25 22.606,70.969 22.606,70.969 0,0 135.976,-196.168 158.687,-223.289 34.664,-41.371 85.839,-32.019 85.839,-32.019 0,0 -48.202,-4.93 -81.593,37.808 C 898.57,483.422 773.258,695.41 773.258,695.41 l -2.528,120.781 c 0,0 -14.914,-5.281 -100.511,10.207 -92.946,16.922 -170.508,156.801 -167.293,174.132 3.789,20.19 73.554,21.23 177.508,8.6 18.25,-2.18 91.679,-21.11 91.679,-21.11 0,0 -39.816,61.04 -108.203,103.38 -26.387,16.29 -89.039,63.56 -183.59,119.91 -60.695,36.2 -148.82,82.38 -202.527,127.59 -51.52,43.26 -87.438,63.12 -114.055,89.96 -47.847,48.37 -44.984,78.78 -79.7536,157.78 -36.9453,84.11 -40.0391,93.85 -63.4531,161.45 C -0.464844,1808.72 0,1915.27 0,1915.27 c 0,0 29.6055,-25.99 49.8008,-131.38 19.6133,-103.05 52.5542,-22.44 52.5542,-22.44 15.016,34.14 -1.726,129.84 2.75,224.39 2.18,44.52 -1.039,27.76 5.266,62.76 7.817,42.69 22.953,67.47 22.953,67.47 0,0 11.25,-56.57 3.906,-78.77 -10.664,-32.53 -6.996,-52.21 17.786,-81.3 10.332,-11.93 32.246,38.04 52.781,73.89"
         style="fill:#a61b20;fill-opacity:1;fill-rule:nonzero;stroke:none"
         id="path14"
         inkscape:connector-curvature="0" /><path
         d="m 1832.83,189.301 c 0,-8.313 1.06,-15.571 3.41,-21.781 4.29,-9.641 11.55,-16.079 21.39,-19.258 9.62,-3.313 19.47,-4.934 29.52,-4.934 9.4,-0.387 18.81,1.621 28.86,5.774 9.62,4.539 14.56,12.648 14.98,24.398 0.19,8.34 -4.51,15.18 -14.11,20.102 -10.28,4.699 -29.54,10.699 -57.96,18.25 -13.28,3.527 -26.32,7.617 -39.13,12.089 -13.28,4.309 -25.46,9.969 -36.14,16.918 -10.92,6.711 -19.9,15.84 -26.74,26.93 -7.07,10.461 -10.69,24.082 -10.69,40.641 0.64,38.511 14.11,66.621 40.63,84.261 25.23,17.129 55.17,25.75 89.61,25.75 36.13,0.348 67.15,-7.453 93.01,-23.179 25.45,-16.91 39.37,-45.231 41.49,-85.211 h -94.08 c 1.25,12.258 -2.58,21.277 -11.56,26.418 -9,5.551 -18.82,8.242 -29.51,8.242 -7.28,0 -14.98,-1.402 -22.67,-4.191 -3.64,-1.52 -6.63,-3.661 -8.99,-6.61 -2.77,-3.019 -4.06,-6.898 -4.06,-11.601 0.65,-5.637 3.64,-10.239 9.41,-13.879 5.57,-4.09 12.62,-7.68 21.17,-10.7 18.61,-5.531 39.57,-11.308 63.08,-17.3 12.63,-3.239 24.61,-7.032 35.95,-11.7 11.31,-4.371 21.58,-10.242 30.79,-17.64 9.4,-7.442 16.89,-16.551 22.44,-27.149 4.92,-11.3 7.49,-24.472 7.49,-39.632 -0.84,-42.661 -16.88,-72.5 -47.9,-89.5277 -30.6,-17.1719 -65.45,-25.6329 -104.14,-25.25 -9.62,0 -22.25,1.2968 -37.64,4.3203 -15.83,2.7382 -31.87,8.1172 -48.13,16.2382 -16.04,8.1094 -29.49,20.3202 -40.63,36.3322 -11.32,15.508 -17.31,36.5 -18.39,62.879 h 99.24"
         style="fill:#a61b20;fill-opacity:1;fill-rule:nonzero;stroke:none"
         id="path16"
         inkscape:connector-curvature="0" /><path
         d="m 2171.55,319.57 h 47.9 v -56.879 h -47.9 V 177.98 c -0.42,-11.152 1.51,-19.261 5.35,-24.3 3.86,-5.192 11.34,-7.879 22.26,-7.879 6.83,0 13.68,0.449 20.29,1.39 V 77.4805 c -18.59,-0.6602 -37.62,-1.4922 -57.3,-2.7891 -9.63,0 -19.03,0.7188 -28.02,2.3594 -9.18,1.7187 -17.75,4.8008 -25.87,9.1797 -7.7,5.1484 -13.91,12.3086 -18.39,21.8205 -5.12,9.75 -7.7,22.57 -7.7,38.59 v 116.05 h -40 v 56.879 h 40 v 73.559 h 89.38 V 319.57"
         style="fill:#a61b20;fill-opacity:1;fill-rule:nonzero;stroke:none"
         id="path18"
         inkscape:connector-curvature="0" /><path
         d="m 2502.6,77.4805 h -88.09 v 30.8005 h -0.87 c -16.04,-24.4099 -42.13,-36.6716 -77.85,-36.9997 -21.81,0 -40.62,6.8203 -56.88,20.539 -16.46,13.7617 -24.8,34.4297 -25.22,61.8207 V 319.57 h 89.38 V 192.539 c -0.23,-13.937 1.49,-25.48 5.57,-34.199 3.83,-9.02 12.4,-13.508 26.09,-13.508 8.76,-0.223 17.52,2.816 26.09,9.418 3.61,3.012 7.06,7.711 9.6,14.332 1.93,5.996 3,13.609 3,23.066 V 319.57 h 89.18 V 77.4805"
         style="fill:#a61b20;fill-opacity:1;fill-rule:nonzero;stroke:none"
         id="path20"
         inkscape:connector-curvature="0" /><path
         d="m 2719.44,198.629 c 0,15.293 -2.35,29.062 -7.48,41.281 -3,5.551 -7.27,10.02 -12.82,13.36 -5.8,3.66 -13.04,5.32 -21.84,5.32 -16.23,-0.442 -27.56,-6.59 -33.78,-18.801 -3,-5.539 -5.12,-11.988 -6.41,-19.16 -1.29,-7.149 -1.71,-14.43 -1.71,-22.098 0,-7.062 0.42,-14.332 1.71,-21.39 1.29,-7.27 3.41,-13.61 6.41,-19.262 6.22,-12.699 17.55,-19.379 33.78,-19.641 8.8,0 16.04,2.121 21.84,6.16 5.55,3.403 9.82,7.942 12.82,13.481 5.13,11.871 7.48,25.48 7.48,40.652 z m 86.41,-121.1485 h -88.12 v 26.5975 h -0.85 c -2.56,-3.75 -5.57,-7.328 -9.4,-10.6874 -3.64,-3.8203 -7.7,-7.332 -12.85,-10.6992 -4.93,-3.5195 -11.33,-6.1601 -19.22,-8 -7.7,-1.9101 -17.33,-3.082 -28.67,-3.4101 -33.57,1.0507 -58.6,15.1601 -75.28,42.1097 -16.9,25.898 -25.44,54.64 -25.44,86.429 0,14.5 1.7,29.059 5.12,43.61 3.22,14.66 8.56,28.218 16.46,40.64 7.7,12.371 18.39,22.578 31.66,30.239 13.46,7.152 30.15,10.812 50.05,11.242 28.86,-0.43 51.09,-11.242 66.29,-32.641 h 0.84 v 117.52 h 89.41 V 77.4805"
         style="fill:#a61b20;fill-opacity:1;fill-rule:nonzero;stroke:none"
         id="path22"
         inkscape:connector-curvature="0" /><path
         d="m 3020.11,225.461 c -0.43,11.641 -4.26,21.391 -11.54,29.051 -7.7,7.957 -17.75,11.828 -30.37,11.828 -28.67,-0.352 -44.9,-13.949 -49.42,-40.879 z m -91.74,-47.801 c 1.53,-13.68 6.21,-24.82 13.93,-33.441 7.46,-9.239 18.57,-13.707 33.12,-13.707 7.91,0 15.4,1.617 22.66,4.808 7.09,2.692 12.42,6.821 16.04,12.481 h 86.62 c -9.83,-26.082 -25.88,-45.403 -48.11,-57.8127 -22.03,-12.5078 -47.26,-18.707 -75.29,-18.707 -39.14,0.3281 -71,11.4101 -95.37,33.2497 -25.65,21.719 -38.5,52.789 -38.91,93.207 0.41,36.512 11.97,66.852 35.08,91.16 22.85,23.782 53.24,35.993 91.5,36.653 91.53,-1.27 136.88,-50.492 136.02,-147.891 h -177.29"
         style="fill:#a61b20;fill-opacity:1;fill-rule:nonzero;stroke:none"
         id="path24"
         inkscape:connector-curvature="0" /><path
         d="m 3152.71,319.57 h 88.96 v -30.672 h 0.84 c 16.49,24.461 42.58,36.653 78.91,36.653 21.84,0 40.65,-6.762 56.47,-20.09 15.41,-13.262 23.51,-34.051 23.73,-62.031 V 77.4805 h -89.38 V 204.52 c 0.2,14.339 -1.29,25.871 -4.92,34.589 -3.83,8.813 -12.83,13.063 -26.74,13.063 -8.75,0.219 -17.11,-2.41 -25.02,-8.391 -3.83,-3.152 -7.05,-7.75 -9.82,-13.949 -2.58,-6.504 -3.66,-14.621 -3.66,-24.352 V 77.4805 h -89.37 V 319.57"
         style="fill:#a61b20;fill-opacity:1;fill-rule:nonzero;stroke:none"
         id="path26"
         inkscape:connector-curvature="0" /><path
         d="m 3562.67,319.57 h 48.09 v -56.879 h -48.09 V 177.98 c -0.23,-11.152 1.7,-19.261 5.55,-24.3 3.86,-5.192 11.33,-7.879 22.24,-7.879 6.82,0 13.7,0.449 20.3,1.39 V 77.4805 c -18.58,-0.6602 -37.84,-1.4922 -57.31,-2.7891 -9.82,0 -19.02,0.7188 -28.01,2.3594 -9.18,1.7187 -17.94,4.8008 -25.87,9.1797 -7.7,5.1484 -13.91,12.3086 -18.38,21.8205 -5.14,9.75 -7.7,22.57 -7.7,38.59 v 116.05 h -40 v 56.879 h 40 v 73.559 h 89.18 V 319.57"
         style="fill:#a61b20;fill-opacity:1;fill-rule:nonzero;stroke:none"
         id="path28"
         inkscape:connector-curvature="0" /><path
         d="m 3785.27,248.969 c -0.65,8.23 -4.06,14.34 -10.27,18.422 -6.41,4.711 -13.66,7.05 -22,7.05 -7.28,0 -14.14,-0.953 -20.09,-3.25 -6.65,-2.519 -9.87,-7.671 -9.87,-15.5 0,-3.07 1.06,-5.441 3.65,-7.211 2.35,-2.371 4.69,-4.101 7.27,-5.289 4.47,-1.621 9.61,-2.781 15.82,-3.621 6.21,-1.511 12.81,-2.789 19.86,-3.98 15.43,-2.41 31.02,-6.149 47.07,-11.199 15.51,-4.371 28.56,-11.852 39.36,-22.45 5.35,-4.929 9.63,-11.25 12.71,-18.703 2.68,-7.5 3.97,-16.41 3.97,-26.758 0,-16.679 -3.54,-30.23 -10.59,-40.82 -6.97,-11.25 -16.36,-20.0897 -28.12,-26.6405 -24.81,-12.1992 -52.4,-18.0898 -82.76,-17.7382 -29.53,0 -56.27,6.5898 -80.19,19.5898 -23.97,12.9299 -37.01,34.8279 -39.14,65.6089 h 87.91 c 0.6,-8.339 4.47,-15.39 11.31,-21.281 4.92,-4.687 13.02,-7.039 24.82,-7.039 6.41,0 13.24,1.512 20.29,4.36 6.86,2.8 10.49,7.621 10.71,14.441 0.43,6.719 -2.56,11.98 -8.77,15.398 -6.84,3.411 -20.98,6.782 -42.13,10.301 -34.63,5.942 -59.88,15.059 -75.51,27.551 -15.58,11.969 -23.28,28.211 -23.28,48.527 0,15.231 3.63,27.832 11.11,38.082 7.05,10.309 16.25,18.2 27.58,23.34 11.33,5.988 23.73,10.031 36.99,12.149 12.64,2.203 25.04,3.242 37.02,3.242 27.57,0.41 53.24,-4.422 77.18,-14.442 11.33,-5.359 20.53,-13.14 27.72,-23.347 7.17,-10.012 10.99,-22.953 11.64,-38.793 h -81.27"
         style="fill:#a61b20;fill-opacity:1;fill-rule:nonzero;stroke:none"
         id="path30"
         inkscape:connector-curvature="0" /><path
         d="m 3996.79,333.91 c 0,-12.219 -0.99,-23.582 -2.81,-34.32 -1.93,-11.25 -5.86,-21.219 -11.64,-29.852 -5.67,-8.777 -14.01,-16.398 -24.92,-22.558 -11.02,-6.321 -25.55,-10.692 -43.64,-13.379 v 40.418 c 13.27,2.351 22.68,7.179 28.44,14.679 5.8,7.332 8.58,17.172 8.58,29.391 h -37.02 v 92.141 h 83.01 v -76.52"
         style="fill:#a61b20;fill-opacity:1;fill-rule:nonzero;stroke:none"
         id="path32"
         inkscape:connector-curvature="0" /><path
         d="m 4501.03,205.98 c 0,-91.32 -50.04,-136.8316 -150.14,-136.4487 C 4250.64,69.1484 4200.46,114.66 4200.46,206.199 V 410.43 h 99.34 V 228.988 c 0,-8.566 0.31,-17.136 1.07,-25.758 0.53,-9.011 2.54,-17.468 5.77,-25.25 3.22,-7.492 8.34,-13.609 15.41,-18.3 7.05,-4.77 16.89,-7.34 29.49,-7.34 12.63,0 22.46,2.57 29.53,7.34 6.6,4.691 11.54,10.808 14.53,18.3 3.22,7.782 5.04,16.239 5.65,25.25 0.35,8.622 0.56,17.192 0.56,25.758 V 410.43 h 99.22 V 205.98"
         style="fill:#a61b20;fill-opacity:1;fill-rule:nonzero;stroke:none"
         id="path34"
         inkscape:connector-curvature="0" /><path
         d="m 4561.13,319.57 h 88.96 v -30.672 h 0.86 c 16.47,24.461 42.66,36.653 78.69,36.653 21.94,0 40.84,-6.762 56.47,-20.09 15.58,-13.262 23.51,-34.051 23.81,-62.031 V 77.4805 h -89.26 V 204.52 c 0.21,14.339 -1.41,25.871 -5.04,34.589 -3.71,8.813 -12.7,13.063 -26.64,13.063 -8.75,0.219 -17.09,-2.41 -24.98,-8.391 -3.87,-3.152 -7.09,-7.75 -9.86,-13.949 -2.56,-6.504 -3.83,-14.621 -3.83,-24.352 V 77.4805 h -89.18 V 319.57"
         style="fill:#a61b20;fill-opacity:1;fill-rule:nonzero;stroke:none"
         id="path36"
         inkscape:connector-curvature="0" /><path
         d="m 4865.44,319.57 h 89.14 V 77.4805 h -89.14 z m 89.14,26.321 h -89.14 v 64.539 h 89.14 v -64.539"
         style="fill:#a61b20;fill-opacity:1;fill-rule:nonzero;stroke:none"
         id="path38"
         inkscape:connector-curvature="0" /><path
         d="m 5167.16,198.531 c 0,6.489 -0.29,13.438 -0.93,20.707 -1,7.172 -2.9,13.614 -6,19.25 -2.89,6.133 -6.88,11.051 -12.09,14.782 -5.88,3.66 -13.24,5.32 -22.23,5.32 -8.79,0 -15.72,-1.66 -20.97,-5.32 -5.77,-3.731 -10.14,-8.649 -13.03,-14.782 -5.14,-12.476 -7.72,-25.847 -7.4,-39.957 0,-6.222 0.64,-12.832 1.93,-19.711 0.98,-6.84 2.89,-13.32 5.47,-19.531 2.89,-6.328 7.26,-11.258 13.03,-14.891 5.25,-4.039 12.18,-6.16 20.97,-6.16 8.99,0 16.35,2.121 22.23,6.16 5.21,3.633 9.2,8.563 12.09,14.891 4.9,12.691 7.17,25.75 6.93,39.242 z m 89.28,0 c 0,-34.429 -10.59,-63.941 -31.52,-88.57 -20.96,-25.0899 -53.89,-38.0704 -99.22,-38.6797 -44.61,0.6093 -77.4,13.5898 -98.71,38.6797 -21.58,24.629 -32.17,54.141 -31.76,88.668 -0.41,34.941 10.18,64.562 31.76,88.859 21.31,24.801 54.1,37.403 98.71,38.063 45.33,-0.66 78.26,-13.36 99.22,-38.063 20.93,-24.398 31.52,-54.008 31.52,-88.957"
         style="fill:#a61b20;fill-opacity:1;fill-rule:nonzero;stroke:none"
         id="path40"
         inkscape:connector-curvature="0" /><path
         d="m 5304.49,319.57 h 89.04 v -30.672 h 0.98 c 16.23,24.461 42.56,36.653 78.67,36.653 21.82,0 40.66,-6.762 56.46,-20.09 15.63,-13.262 23.54,-34.051 23.75,-62.031 V 77.4805 H 5464.1 V 204.52 c 0.33,14.339 -1.37,25.871 -5,34.589 -3.87,8.813 -12.74,13.063 -26.64,13.063 -8.68,0.219 -17.09,-2.41 -25.02,-8.391 -3.75,-3.152 -7.05,-7.75 -9.73,-13.949 -2.56,-6.504 -3.87,-14.621 -3.87,-24.352 V 77.4805 h -89.35 V 319.57"
         style="fill:#a61b20;fill-opacity:1;fill-rule:nonzero;stroke:none"
         id="path42"
         inkscape:connector-curvature="0" /><path
         d="m 1738.94,809.73 h 206.79 v -21.609 h -91.1 V 540.488 h -24.59 v 247.633 h -91.1 v 21.609"
         style="fill:#a61b20;fill-opacity:1;fill-rule:nonzero;stroke:none"
         id="path44"
         inkscape:connector-curvature="0" /><path
         d="m 1972.25,809.73 h 22.9 V 701.5 h 0.64 c 4.7,11.879 12.4,21.398 23.74,28.672 10.89,7.058 23.09,10.469 36.55,10.469 26.31,-0.219 44.48,-6.832 54.31,-19.879 10.05,-13.051 14.98,-31.461 14.75,-54.973 V 540.488 h -22.87 v 121.434 c 0.23,17.359 -2.99,31.476 -9.82,42.328 -7.09,10.691 -19.91,16.301 -38.07,16.512 -18.61,-0.211 -32.95,-6.434 -43,-18.871 -10.47,-12.36 -15.81,-28.321 -16.23,-47.86 V 540.488 h -22.9 V 809.73"
         style="fill:#a61b20;fill-opacity:1;fill-rule:nonzero;stroke:none"
         id="path46"
         inkscape:connector-curvature="0" /><path
         d="m 2310.77,651.352 c -0.42,18.91 -5.77,35 -16.04,48.199 -10.7,13.937 -25.23,21 -44.03,21.211 -18.85,-0.211 -33.38,-7.274 -43.64,-21.211 -10.48,-13.66 -16.69,-29.789 -18.6,-48.199 z m -122.31,-19.774 c 0,-18.648 5.13,-35.488 14.95,-51.219 9.85,-16.57 25.67,-25.14 47.29,-25.648 16.87,0 30.14,4.699 39.96,14 9.41,8.961 16.04,20.937 19.5,35.891 h 22.86 c -8.57,-45.75 -35.91,-69.032 -82.32,-69.821 -29.74,0.559 -51.35,10.797 -64.59,30.91 -13.68,19.707 -20.32,43.719 -20.32,72.098 0,26.941 6.64,50.449 20.32,70.883 13.24,20.816 34.85,31.519 64.59,31.969 30.36,-0.45 51.95,-11.75 64.99,-33.821 13.46,-21.55 19.46,-46.679 17.98,-75.242 h -145.21"
         style="fill:#a61b20;fill-opacity:1;fill-rule:nonzero;stroke:none"
         id="path48"
         inkscape:connector-curvature="0" /><path
         d="m 2477.8,809.73 h 24.58 V 642.891 c 1.71,-58.789 27.18,-87.571 76.56,-86.391 50.05,-1.18 75.72,27.602 76.78,86.391 V 809.73 h 24.8 V 637.34 c 0.23,-28.199 -7.46,-52.168 -23.08,-71.649 -16.27,-20.113 -42.36,-30.351 -78.5,-30.91 -35.91,0.559 -61.58,10.797 -77.4,30.91 -16.04,19.481 -23.97,43.329 -23.74,71.649 v 172.39"
         style="fill:#a61b20;fill-opacity:1;fill-rule:nonzero;stroke:none"
         id="path50"
         inkscape:connector-curvature="0" /><path
         d="m 2733.98,735.16 h 22.89 V 701.5 h 0.64 c 4.7,11.879 12.62,21.398 23.73,28.672 11.11,7.058 23.33,10.469 36.57,10.469 26.31,-0.219 44.47,-6.832 54.55,-19.879 10.04,-13.051 14.94,-31.461 14.53,-54.973 V 540.488 h -22.68 v 121.434 c 0.22,17.359 -3.18,31.476 -9.82,42.328 -7.27,10.691 -19.9,16.301 -38.07,16.512 -18.61,-0.211 -32.92,-6.434 -43,-18.871 -10.47,-12.36 -16.02,-28.321 -16.45,-47.86 V 540.488 h -22.89 V 735.16"
         style="fill:#a61b20;fill-opacity:1;fill-rule:nonzero;stroke:none"
         id="path52"
         inkscape:connector-curvature="0" /><path
         d="m 2937.57,735.16 h 22.66 V 540.488 h -22.66 z m 0,74.57 h 22.66 v -37.91 h -22.66 v 37.91"
         style="fill:#a61b20;fill-opacity:1;fill-rule:nonzero;stroke:none"
         id="path54"
         inkscape:connector-curvature="0" /><path
         d="m 2985.68,735.16 h 25.66 l 59.05,-171.039 h 0.84 l 58.39,171.039 h 23.73 l -70.37,-194.672 h -24.59 l -72.71,194.672"
         style="fill:#a61b20;fill-opacity:1;fill-rule:nonzero;stroke:none"
         id="path56"
         inkscape:connector-curvature="0" /><path
         d="m 3317.14,651.352 c -0.41,18.91 -5.76,35 -16.01,48.199 -10.69,13.937 -25.26,21 -44.06,21.211 -18.81,-0.211 -33.38,-7.274 -43.64,-21.211 -10.49,-13.66 -16.66,-29.789 -18.59,-48.199 z m -122.3,-19.774 c 0,-18.648 4.9,-35.488 14.98,-51.219 9.82,-16.57 25.64,-25.14 47.25,-25.648 16.87,0 30.15,4.699 39.98,14 9.43,8.961 16.03,20.937 19.49,35.891 h 22.85 c -8.56,-45.75 -36.13,-69.032 -82.32,-69.821 -29.73,0.559 -51.35,10.797 -64.81,30.91 -13.46,19.707 -20.31,43.719 -20.31,72.098 0,26.941 6.85,50.449 20.31,70.883 13.46,20.816 35.08,31.519 64.81,31.969 30.15,-0.45 51.97,-11.75 65.01,-33.821 13.44,-21.55 19.44,-46.679 17.97,-75.242 h -145.21"
         style="fill:#a61b20;fill-opacity:1;fill-rule:nonzero;stroke:none"
         id="path58"
         inkscape:connector-curvature="0" /><path
         d="m 3377.46,735.16 h 21.17 v -45.422 h 0.86 c 12.4,32.25 36.15,48.223 70.99,47.992 v -23.511 c -21.15,0.722 -38.06,-5.43 -50.47,-18.481 -13.04,-13.379 -19.45,-30.617 -19.66,-51.34 v -103.91 h -22.89 V 735.16"
         style="fill:#a61b20;fill-opacity:1;fill-rule:nonzero;stroke:none"
         id="path60"
         inkscape:connector-curvature="0" /><path
         d="m 3609.06,678.102 c -0.84,14.839 -5.76,25.859 -14.94,33.027 -9.46,6.391 -20.98,9.633 -34.24,9.633 -5.14,0 -10.26,-0.442 -15.41,-1.391 -4.92,-1.172 -9.83,-3.019 -14.1,-5.66 -4.28,-2.582 -7.93,-6 -10.47,-10.199 -2.99,-4.59 -4.51,-9.961 -4.51,-16.114 0,-5.148 1.52,-9.628 4.06,-13.378 2.79,-3.758 5.99,-6.95 9.86,-9.29 8.54,-4.941 16.86,-8.339 25.02,-10.371 l 30.57,-7 c 13.9,-1.89 26.31,-7.05 36.77,-15.507 10.92,-8.832 16.7,-21.661 16.92,-38.454 -0.45,-20.82 -8.79,-35.82 -24.38,-45.019 -15.62,-9.008 -32.54,-13.598 -50.93,-13.598 -22.21,0 -40.2,5.598 -53.66,16.571 -13.69,11.027 -21.62,28.277 -23.96,52.019 h 22.91 c 1.46,-15.851 7.26,-28.062 17.32,-36.402 10.04,-8.117 22.87,-12.258 38.48,-12.258 11.54,0 22.87,2.867 33.79,8.629 5.14,3.019 9.41,6.66 12.83,11.25 3.22,4.59 4.92,10.23 4.92,17.191 0,5.758 -1.29,10.578 -3.41,14.559 -2.17,3.851 -5.36,7.051 -9.44,9.851 -8.12,5.09 -17.52,8.731 -28.44,10.918 l -29.51,6.821 c -7.26,2.242 -14.1,4.699 -20.31,7.55 -6.62,2.469 -12.4,5.61 -16.88,9.418 -10.05,7.172 -15.19,18.922 -15.41,34.993 0.65,19.98 8.36,34.089 23.32,42.437 14.3,8.231 30.16,12.313 47.45,12.313 19.25,0 35.07,-4.922 47.93,-15 12.59,-10.7 19.68,-26.481 20.74,-47.539 h -22.89"
         style="fill:#a61b20;fill-opacity:1;fill-rule:nonzero;stroke:none"
         id="path62"
         inkscape:connector-curvature="0" /><path
         d="m 3678.14,735.16 h 22.87 V 540.488 h -22.87 z m 0,74.57 h 22.87 v -37.91 h -22.87 v 37.91"
         style="fill:#a61b20;fill-opacity:1;fill-rule:nonzero;stroke:none"
         id="path64"
         inkscape:connector-curvature="0" /><path
         d="m 3783.78,735.16 h 38.7 v -19.879 h -38.7 V 584.102 c -0.21,-7.723 0.84,-13.711 3.21,-17.973 2.56,-4.469 7.69,-7.168 15.6,-7.891 6.43,0 13.05,0.274 19.89,1.071 v -20.207 c -7.07,0 -13.66,-0.352 -20.51,-0.801 -15.2,0 -25.69,3.258 -31.88,9.41 -6.21,6.449 -9.2,17.98 -8.98,34.258 v 133.312 h -32.95 v 19.879 h 32.95 v 58.281 h 22.67 V 735.16"
         style="fill:#a61b20;fill-opacity:1;fill-rule:nonzero;stroke:none"
         id="path66"
         inkscape:connector-curvature="0" /><path
         d="m 3838.1,735.16 h 24.38 l 62.1,-165.84 58.07,165.84 h 23.09 l -81.88,-224.398 c -5.99,-15.84 -12.2,-26.981 -18.61,-33.141 -6.41,-6 -16.9,-9.012 -31.02,-9.012 -8.53,0 -14.33,0.672 -17.4,1.852 v 19.988 c 5.33,-1.289 10.59,-1.969 15.7,-1.969 9.93,0.231 17.09,3.141 21.39,8.782 4.38,5.547 8.11,12.84 11.33,21.84 l 8.12,22.226 -75.27,193.832"
         style="fill:#a61b20;fill-opacity:1;fill-rule:nonzero;stroke:none"
         id="path68"
         inkscape:connector-curvature="0" /><path
         d="m 4218.32,720.762 c -22.04,-0.442 -38.5,-9 -49.52,-25.684 -11.21,-16.699 -16.75,-35.84 -16.75,-57.387 0,-21.621 5.54,-40.66 16.75,-57 11.02,-16.8 27.48,-25.472 49.52,-25.98 22.24,0.508 38.92,9.18 49.82,25.98 11.11,16.34 16.46,35.379 16.46,57 0,21.547 -5.35,40.688 -16.46,57.387 -10.9,16.684 -27.58,25.242 -49.82,25.684 z m 0,19.879 c 28.98,-0.45 51.11,-10.469 66.52,-29.95 15.06,-19.66 22.67,-43.953 22.67,-72.902 0,-28.648 -7.61,-52.617 -22.67,-72.098 -15.41,-20.113 -37.54,-30.351 -66.52,-30.91 -28.85,0.559 -51.12,10.797 -66.08,30.91 -15.41,19.481 -23.1,43.45 -23.1,72.098 0,28.949 7.69,53.242 23.1,72.902 14.96,19.481 37.23,29.5 66.08,29.95"
         style="fill:#a61b20;fill-opacity:1;fill-rule:nonzero;stroke:none"
         id="path70"
         inkscape:connector-curvature="0" /><path
         d="m 4421.17,715.281 h -37.21 V 540.488 h -22.79 v 174.793 h -32.27 v 19.879 h 32.27 v 17.692 c -0.53,17.308 2.58,31.058 9.22,41.476 6.52,10.024 18.57,15.172 36.13,15.402 6.19,0 12.6,-0.441 19.45,-1.511 v -20.328 c -5.86,1.289 -11.44,1.898 -16.91,1.898 -12.17,-0.16 -19.44,-3.801 -21.92,-10.961 -2.46,-7.008 -3.53,-15.957 -3.18,-26.648 v -17.02 h 37.21 v -19.879"
         style="fill:#a61b20;fill-opacity:1;fill-rule:nonzero;stroke:none"
         id="path72"
         inkscape:connector-curvature="0" /><path
         d="m 4566.69,628.898 c 0.2,-27.046 8.42,-45.968 24.57,-56.546 16.16,-10.692 36.57,-16.071 60.94,-15.852 15.22,0 30.39,4.379 45.24,12.93 7.18,4.59 12.95,10.199 17.63,17.019 4.18,6.84 6.45,15.18 6.64,25.031 0,7.68 -1.48,14.45 -4.7,20.098 -3.42,5.211 -7.7,9.813 -12.82,13.442 -11.23,7.378 -23.3,12.421 -36.36,15.23 l -58.17,14.719 c -7.59,2.242 -14.86,4.922 -21.91,8.34 -6.95,3.043 -13.17,7.05 -18.71,11.769 -11.97,9.512 -18.09,24.512 -18.32,44.883 0,7.18 1.31,15.019 3.98,23.578 2.89,8.512 7.5,16.852 13.89,24.922 6.52,8.109 15.62,14.719 27.5,19.758 11.64,5.043 26.52,7.66 44.61,7.89 26.72,0 49.28,-7.05 67.77,-21.05 18.48,-14 27.99,-34.77 28.46,-62.418 h -24.61 c -1.19,20.597 -8.57,36.218 -22.03,46.679 -13.69,10.078 -30.16,15.18 -49.3,15.18 -17.64,0 -32.81,-3.922 -45.45,-11.762 -13.24,-8.109 -19.9,-22.117 -20.1,-42.097 0.2,-12.2 4.3,-21.621 12.07,-27.821 7.29,-6.281 16.39,-10.691 27.39,-13.332 l 63.85,-16.289 c 19.04,-4.59 34.96,-12.09 47.91,-22.789 6.4,-5.211 11.32,-11.762 14.74,-19.531 3.3,-7.84 4.92,-17.41 4.92,-28.777 0,-4.922 -0.64,-11.204 -2.15,-19.274 -1.81,-8.609 -6.07,-17.277 -12.83,-26.187 -6.29,-8.52 -16.03,-15.789 -29.49,-21.903 -13.71,-6.316 -32.21,-9.617 -55.41,-9.957 -31.54,0 -56.99,7.61 -76.33,22.559 -19.45,15.39 -28.88,39.14 -28.01,71.558 h 24.59"
         style="fill:#a61b20;fill-opacity:1;fill-rule:nonzero;stroke:none"
         id="path74"
         inkscape:connector-curvature="0" /><path
         d="m 4941.25,540.488 h -21.06 v 35.063 h -0.86 c -13.69,-26.942 -35.31,-40.43 -65.02,-40.77 -44.92,1.059 -66.95,25.797 -65.86,74.129 v 126.25 h 22.76 V 608.352 c 0.54,-17.411 4.62,-30.68 12.32,-39.641 7.48,-9.301 20.1,-14 38.05,-14 19.9,0.289 34.31,8.398 43.65,24.469 8.75,15.39 13.22,33.261 13.22,53.691 V 735.16 h 22.8 V 540.488"
         style="fill:#a61b20;fill-opacity:1;fill-rule:nonzero;stroke:none"
         id="path76"
         inkscape:connector-curvature="0" /><path
         d="m 4991.38,735.16 h 21.29 v -45.422 h 0.63 c 12.73,32.25 36.36,48.223 71.13,47.992 v -23.511 c -21.19,0.722 -38.07,-5.43 -50.59,-18.481 -12.81,-13.379 -19.35,-30.617 -19.55,-51.34 v -103.91 h -22.91 V 735.16"
         style="fill:#a61b20;fill-opacity:1;fill-rule:nonzero;stroke:none"
         id="path78"
         inkscape:connector-curvature="0" /><path
         d="m 5110.29,735.16 h 21.17 v -45.422 h 0.74 c 12.52,32.25 36.27,48.223 71.12,47.992 v -23.511 c -21.27,0.722 -38.09,-5.43 -50.59,-18.481 -12.81,-13.379 -19.34,-30.617 -19.65,-51.34 v -103.91 h -22.79 V 735.16"
         style="fill:#a61b20;fill-opacity:1;fill-rule:nonzero;stroke:none"
         id="path80"
         inkscape:connector-curvature="0" /><path
         d="m 5357.91,651.352 c -0.41,18.91 -5.86,35 -16.12,48.199 -10.6,13.937 -25.35,21 -43.94,21.211 -18.93,-0.211 -33.38,-7.274 -43.66,-21.211 -10.56,-13.66 -16.75,-29.789 -18.57,-48.199 z m -122.29,-19.774 c 0,-18.648 4.9,-35.488 14.94,-51.219 9.75,-16.57 25.47,-25.14 47.29,-25.648 16.75,0 30.13,4.699 39.86,14 9.51,8.961 16.04,20.937 19.49,35.891 h 22.87 c -8.65,-45.75 -36.03,-69.032 -82.22,-69.821 -29.73,0.559 -51.35,10.797 -64.81,30.91 -13.46,19.707 -20.33,43.719 -20.33,72.098 0,26.941 6.87,50.449 20.33,70.883 13.46,20.816 35.08,31.519 64.81,31.969 30.13,-0.45 51.73,-11.75 64.76,-33.821 13.62,-21.55 19.57,-46.679 18.09,-75.242 h -145.08"
         style="fill:#a61b20;fill-opacity:1;fill-rule:nonzero;stroke:none"
         id="path82"
         inkscape:connector-curvature="0" /><path
         d="m 5396.97,735.16 h 24.47 l 62.03,-165.84 58.17,165.84 h 22.98 l -81.79,-224.398 c -6.23,-15.84 -12.29,-26.981 -18.62,-33.141 -6.64,-6 -16.89,-9.012 -31.01,-9.012 -8.56,0 -14.44,0.672 -17.54,1.852 v 19.988 c 5.35,-1.289 10.6,-1.969 15.74,-1.969 9.92,0.231 17.11,3.141 21.37,8.782 4.37,5.547 8.24,12.84 11.44,21.84 l 8.03,22.226 -75.27,193.832"
         style="fill:#a61b20;fill-opacity:1;fill-rule:nonzero;stroke:none"
         id="path84"
         inkscape:connector-curvature="0" /></g></g></svg>